<svg id="Group_326" data-name="Group 326" xmlns="http://www.w3.org/2000/svg" xmlns:xlink="http://www.w3.org/1999/xlink" width="47.014" height="54.065" viewBox="0 0 47.014 54.065">
  <defs>
    <clipPath id="clip-path">
      <rect id="Rectangle_64" data-name="Rectangle 64" width="47.014" height="54.065" fill="#9a9a9a"/>
    </clipPath>
  </defs>
  <g id="Group_325" data-name="Group 325" clip-path="url(#clip-path)">
    <path id="Path_148" data-name="Path 148" d="M46.213,18.1a36.985,36.985,0,0,0-4.87-.4L44.6,15.019,44.622,15a2.487,2.487,0,0,0-.489-4.05l.793-.664a5.847,5.847,0,0,0-.1-9.041A5.577,5.577,0,0,0,42.007.048a6.192,6.192,0,0,0-4.732,1.41l-1.012.848a2.49,2.49,0,1,0,3.2,3.818l1.166-.976a.859.859,0,0,1,1.1,1.314l-10.7,8.887A30.828,30.828,0,0,0,26.159,4.757a.784.784,0,0,0-1.293.01c-1.5,2.23-5,7.993-4.956,13.339,0,.571.029,1.136.072,1.685-.185-.109-.414-.23-.788-.412a20.265,20.265,0,0,0-8.832-1.684,36.574,36.574,0,0,0-5.341.4.784.784,0,0,0-.565,1.162C5.781,21.6,9.383,27.292,14.19,29.637l.255.123-9,6.574-.034.027-3.07,2.514A2.49,2.49,0,0,0,3,43.091l-.881.665-.03.023a5.847,5.847,0,0,0,.09,9.041A5.576,5.576,0,0,0,5,54.018a5.99,5.99,0,0,0,.755.048H5.76a6.216,6.216,0,0,0,3.974-1.452l1.014-.847a2.49,2.49,0,1,0-3.193-3.822l-1.166.974a.859.859,0,0,1-1.115-1.307l6.8-5.418a37.617,37.617,0,0,0,0,3.944.783.783,0,0,0,.375.627.792.792,0,0,0,.729.046c2.454-1.1,8.463-4.15,11.25-8.712.152-.248.281-.454.4-.635a10.126,10.126,0,0,0,.788-1.412,14.762,14.762,0,0,0,.827,1.432c.118.188.244.389.382.615,2.79,4.568,8.8,7.615,11.25,8.713a.784.784,0,0,0,1.1-.674c.143-2.686.174-9.427-2.612-13.988-.425-.7-.785-1.278-1.127-1.766l.445-.206c.411-.189.857-.4,1.158-.536C41.61,27.5,45.1,22.219,46.779,19.258a.784.784,0,0,0-.566-1.162M15.691,40.362l-.142-.1-1.958,2.818c.157-5.784,1.737-8.985,2.426-10.113.224-.367.421-.7.595-1a14.3,14.3,0,0,1,1.04-1.615l-.087,3.309A3.606,3.606,0,0,0,18.587,36.3a3.55,3.55,0,0,0,3.722.85l1.116-.414c-.1.161-.214.341-.342.551-.732,1.2-3,4.225-8.483,7.1l2.238-3.22-.142-.1-.01-.007-.132-.092-.863-.6ZM3.974,49.816a2.43,2.43,0,0,0,3.419.307l1.167-.974a.922.922,0,1,1,1.182,1.415l-1.014.847A4.614,4.614,0,0,1,5.2,52.462,4.009,4.009,0,0,1,3.173,51.6,4.28,4.28,0,0,1,3.081,45L12.6,37.812c-.142.71-.26,1.458-.351,2.231L4.281,46.4a2.43,2.43,0,0,0-.307,3.418m30.9-9.639a.785.785,0,0,0-.3,1.067l1.613,2.9c-5.172-2.8-7.332-5.711-8.031-6.857-.122-.2-.236-.382-.342-.551l1.117.414a3.484,3.484,0,0,0,1.211.219,3.532,3.532,0,0,0,2.511-1.07,3.606,3.606,0,0,0,1.021-2.632l-.082-3.09a17.089,17.089,0,0,1,1.629,2.4c.718,1.176,2.352,4.511,2.435,10.585L35.94,40.481a.784.784,0,0,0-1.067-.3M8.744,38.165,4.553,41.476l-.018.015a.922.922,0,0,1-1.191-1.408l3.043-2.492,8.941-6.534-.073.125c-.169.288-.36.615-.577.969a14.562,14.562,0,0,0-1.225,2.581.759.759,0,0,0-.25.122Zm.523-16.4a.784.784,0,0,0,.711-1.4l-2-1.016c.812-.058,1.611-.087,2.381-.087a18.747,18.747,0,0,1,8.145,1.526l.194.1-1.429.439a3.522,3.522,0,0,0-2.332,2.3,3.661,3.661,0,0,0,.526,3.315l1.41,1.911c-.064.068-.126.137-.188.208-.485-.2-1.27-.566-1.809-.829-1.229-.6-4.38-2.513-7.7-7.528ZM19.71,35.2a2.049,2.049,0,0,1-.577-1.5l.105-4.014a.788.788,0,0,0-.153-.486l-2.358-3.2a2.091,2.091,0,0,1-.3-1.893,1.974,1.974,0,0,1,1.3-1.292l3.68-1.131a.787.787,0,0,0,.425-.319l2.154-3.277a1.933,1.933,0,0,1,3.255,0L29.4,21.372a.786.786,0,0,0,.425.319L33.5,22.822a1.974,1.974,0,0,1,1.3,1.293,2.089,2.089,0,0,1-.3,1.892l-2.36,3.2A.788.788,0,0,0,32,29.69L32.1,33.7a2.049,2.049,0,0,1-.577,1.5,1.953,1.953,0,0,1-1.387.6,1.918,1.918,0,0,1-.667-.122L25.89,34.347a.784.784,0,0,0-.545,0l-3.58,1.327A1.959,1.959,0,0,1,19.71,35.2M26.4,8.045c1.584,2.7,3.324,6.459,3.352,9.984,0,.389,0,.721,0,1.025l-1.2-1.821a3.5,3.5,0,0,0-5.876,0l-1.174,1.786c-.016-.313-.025-.623-.027-.926-.016-2.055.563-5.488,3.355-10.312l.029,3.156a.784.784,0,0,0,1.568-.014Zm16.332-.378a2.427,2.427,0,0,0-3.117-3.721l-1.165.976A.922.922,0,0,1,37.27,3.508l1.012-.848A4.619,4.619,0,0,1,41.81,1.6a4.012,4.012,0,0,1,2.027.857,4.279,4.279,0,0,1,.083,6.621L35.03,16.526l-2.991,2.453a.776.776,0,0,0-.168.194l-.576.482c.03-.481.034-.977.029-1.638,0-.267-.014-.542-.036-.837L42.735,7.667Zm-3.58,9.8a.775.775,0,0,0-.217.287,23.146,23.146,0,0,0-3.5.476l.6-.5,2.222-1.822,4.089-3.453a.9.9,0,0,1,.607-.236.944.944,0,0,1,.269.04.9.9,0,0,1,.628.642.915.915,0,0,1-.261.917ZM34.5,29.086l-.107.05c-.047-.047-.094-.094-.142-.141l1.518-2.057a3.659,3.659,0,0,0,.526-3.314,3.525,3.525,0,0,0-2.331-2.3l-1.432-.44.195-.095a18.752,18.752,0,0,1,8.145-1.526c.762,0,1.548.028,2.344.084L40.274,20.7a.784.784,0,1,0,.657,1.424l3.147-1.452c-1.779,2.708-4.475,6.036-7.71,7.546-.284.133-.7.323-1.087.5Z" transform="translate(0 -0.001)" fill="#9a9a9a"/>
    <path id="Path_149" data-name="Path 149" d="M183.541,203.773a2.283,2.283,0,0,0,2.435-.555,2.326,2.326,0,0,0,.662-1.7l-.031-1.192.7-.946a2.355,2.355,0,0,0,.339-2.135,2.326,2.326,0,0,0-1.517-1.494l-1.058-.325-.624-.95a2.346,2.346,0,0,0-3.84,0l-.624.948-1.058.326a2.325,2.325,0,0,0-1.517,1.494,2.355,2.355,0,0,0,.34,2.135l.7.945-.032,1.193a2.333,2.333,0,0,0,.663,1.7,2.308,2.308,0,0,0,2.438.554l1.013-.376Zm-3.676-4.16-.858-1.163a.786.786,0,0,1-.112-.712.753.753,0,0,1,.489-.486l1.327-.408a.786.786,0,0,0,.424-.318l.779-1.183a.784.784,0,0,1,1.22,0l.779,1.184a.786.786,0,0,0,.424.319l1.327.408a.756.756,0,0,1,.49.488.785.785,0,0,1-.112.712l-.858,1.162a.788.788,0,0,0-.153.486l.038,1.461a.771.771,0,0,1-.217.563.737.737,0,0,1-.769.179l-1.287-.478a.785.785,0,0,0-.546,0l-1.281.476a.743.743,0,0,1-.774-.176.772.772,0,0,1-.218-.564l.039-1.461a.788.788,0,0,0-.153-.486" transform="translate(-156.908 -171.24)" fill="#9a9a9a"/>
  </g>
</svg>
