<svg id="Group_2132" data-name="Group 2132" xmlns="http://www.w3.org/2000/svg" xmlns:xlink="http://www.w3.org/1999/xlink" width="64" height="46.544" viewBox="0 0 64 46.544">
  <defs>
    <clipPath id="clip-path">
      <rect id="Rectangle_63" data-name="Rectangle 63" width="64" height="46.544" fill="#ff1378"/>
    </clipPath>
  </defs>
  <g id="Group_309" data-name="Group 309" clip-path="url(#clip-path)">
    <path id="Path_130" data-name="Path 130" d="M66.067,35.561a.554.554,0,0,0-.056-.688,11.032,11.032,0,0,0-9.062-3.486l-.4.014.209-.336a17.568,17.568,0,0,0,2.68-11.584.551.551,0,0,0-.714-.46,38.01,38.01,0,0,0-8.774,5.006l-.348.255.013-.432a15.143,15.143,0,0,0-2.068-8.158A11.834,11.834,0,0,0,40.5,10.221a1.325,1.325,0,0,0-1.237.3,1.31,1.31,0,0,0-.211.249l-.211.322-.158-.351a11.912,11.912,0,0,0-1.84-2.889A14.606,14.606,0,0,0,25.839,3,12.34,12.34,0,0,0,15.26,8.406a1.306,1.306,0,0,0-.191.969l.043.225-.228.024a12.043,12.043,0,0,0-5.864,2.32A14.864,14.864,0,0,0,4.405,17.68c-2.29,4.948-1.745,10.34,1.423,14.071a1.315,1.315,0,0,0,.942.46l.237.01-.038.234c-.02.126-.04.252-.057.379a13.1,13.1,0,0,0,1.05,6.92,15.669,15.669,0,0,0,5.083,6.313,12.928,12.928,0,0,0,7.6,2.6,11.3,11.3,0,0,0,4.314-.856,1.308,1.308,0,0,0,.692-.663l.1-.211.2.118A12,12,0,0,0,32.132,48.7a15.05,15.05,0,0,0,10.8-4.723,13.2,13.2,0,0,0,1.716-2.291l.107-.181.21.125.019.011a19.155,19.155,0,0,0,7.4,1.481h.061c3.882-.013,9.4-1.335,13.624-7.56M39.484,19.234c.965-1.9,1.1-4.211.46-7.711l-.061-.331.325.09a10.753,10.753,0,0,1,6.4,4.978,14.02,14.02,0,0,1,1.9,7.9c-.252,4.62-2.9,9.945-9.566,11.037l-.438.072.221-.385a16.015,16.015,0,0,0,.758-15.469l-.043-.093Zm-.359,4.924.319-.287.032.428a14.447,14.447,0,0,1-3.54,11.23,13.738,13.738,0,0,1-10.069,4.294A13.055,13.055,0,0,1,18.9,37.875a14.3,14.3,0,0,1-3.753-3.813c-.135-.2-.274-.426-.436-.7a14.936,14.936,0,0,1-1.643-5.728l-.035-.387.344.181A23.728,23.728,0,0,0,24.427,30.44c5.114,0,10.059-2.114,14.7-6.282M25.433,18.081l-.159-.1.08-.17a15.676,15.676,0,0,1,2.909-4.191l.073-.076.1.013c4.685.582,8.064,3.4,10.044,8.364l.048.12-.085.1a20.833,20.833,0,0,1-6.737,5.2l-.246.117-.052-.267c-.829-4.25-2.674-7.06-5.98-9.112m4.341,9.1a.761.761,0,0,1-.33.572,7.1,7.1,0,0,1-3.9,1.117,10.314,10.314,0,0,1-2.133-.24l-.14-.03-.024-.142a14.219,14.219,0,0,1,.839-8.422.219.219,0,0,1,0-.056c.009-.057.052-.188.265-.188h0a3.536,3.536,0,0,1,2.322,1.187c1.555,1.747,3.287,4.9,3.1,6.2M25.814,13.7c-3.241,3.7-4.67,8.216-4.5,14.2l.008.261-.257-.048a22.865,22.865,0,0,1-8.024-2.952l-.128-.078.031-.147c1.565-7.336,5.717-11.126,12.694-11.586l.507-.033ZM16.18,9.011A11.257,11.257,0,0,1,25.839,4.1,13.492,13.492,0,0,1,36.01,8.565a10.916,10.916,0,0,1,2.45,9.028l-.067.441-.3-.331a16.961,16.961,0,0,0-6.668-4.694A15.529,15.529,0,0,0,26,12.063a18.994,18.994,0,0,0-2.335.148l-.1.013-.073-.073c-1.507-1.509-3.65-2.351-7.164-2.815L16,9.292ZM7.022,30.986l-.135.31-.219-.258C3.781,27.638,3.3,22.7,5.4,18.142a13.761,13.761,0,0,1,4.269-5.312,10.74,10.74,0,0,1,6.39-2.17,11.472,11.472,0,0,1,4.843,1.121l.4.186-.4.195c-5.5,2.69-8.865,6.984-9.728,12.416l-.016.1-.09.05c-1.827,1.014-2.618,2.88-3.62,5.242-.14.33-.284.669-.434,1.014m17.513,15.8a10.2,10.2,0,0,1-3.9.774c-4.752,0-9.55-3.393-11.669-8.25a11.229,11.229,0,0,1,2.07-12.6l.3-.327.06.442a19.107,19.107,0,0,0,2.228,6.869,12.916,12.916,0,0,0,4.492,4.986,16.849,16.849,0,0,0,2.021,1.232l.091.047.019.1c.4,2.1,1.7,4.007,4.339,6.38l.25.224Zm17.589-3.565A13.93,13.93,0,0,1,32.132,47.6a10.818,10.818,0,0,1-9.83-5.934l-.212-.39.436.081a19.414,19.414,0,0,0,3.552.343,15.61,15.61,0,0,0,11.234-4.763l.074-.072.1.014a7.164,7.164,0,0,0,.945.062c1.835,0,3.825-.674,6.453-2.186l.293-.168.023.337a11.014,11.014,0,0,1-3.075,8.3m3.633-4a11.639,11.639,0,0,0,.541-4.379,1.307,1.307,0,0,0-.256-.688l-.121-.164,8.754-6.9a.551.551,0,1,0-.682-.865l-6.969,5.5.622-1.011a13.334,13.334,0,0,0,1.78-4.849l.018-.109.1-.048a.555.555,0,0,0,.105-.064,45.616,45.616,0,0,1,8.5-5.229l.273-.114.018.3c.318,5.128-1.72,9.887-6.056,14.146a31.15,31.15,0,0,1-6.318,4.734l-.47.265Zm6.738,2.8h-.113a18.754,18.754,0,0,1-5.9-.982l-.562-.19,10.364-3.873a.551.551,0,1,0-.386-1.032l-5.644,2.11.97-.8c.664-.548,1.3-1.119,1.89-1.7A25.371,25.371,0,0,0,55.712,32.6l.082-.109.133.03a.558.558,0,0,0,.162.015c2.837-.21,5.851-.036,8.677,2.647l.134.127-.108.149A14.71,14.71,0,0,1,52.5,42.02" transform="translate(-2.582 -2.577)" fill="#ff1378"/>
    <path id="Path_131" data-name="Path 131" d="M63.735,32.005a11.3,11.3,0,0,0-8.994-3.628,17.913,17.913,0,0,0,2.538-11.524.973.973,0,0,0-1.26-.812,37.5,37.5,0,0,0-8.553,4.82A15.538,15.538,0,0,0,45.331,12.9a12.249,12.249,0,0,0-7.3-5.662,1.735,1.735,0,0,0-1.635.39l-.054.051a12.371,12.371,0,0,0-1.763-2.684A15.033,15.033,0,0,0,23.258,0,12.753,12.753,0,0,0,12.326,5.6a1.721,1.721,0,0,0-.281,1.055A12.5,12.5,0,0,0,6.188,9.027a15.286,15.286,0,0,0-4.747,5.9c-2.36,5.1-1.791,10.663,1.485,14.521a1.736,1.736,0,0,0,1.011.582q-.013.086-.025.173a13.524,13.524,0,0,0,1.081,7.143,16.1,16.1,0,0,0,5.222,6.485,13.347,13.347,0,0,0,7.843,2.679,11.72,11.72,0,0,0,4.475-.888,1.727,1.727,0,0,0,.8-.674,12.437,12.437,0,0,0,6.213,1.6,15.478,15.478,0,0,0,11.106-4.856,13.628,13.628,0,0,0,1.67-2.2A19.836,19.836,0,0,0,49.8,40.966h.063c3.983-.013,9.64-1.368,13.971-7.745a.978.978,0,0,0-.1-1.215M49.8,40.544a19.152,19.152,0,0,1-7.4-1.481l-.019-.011-.21-.125-.107.181A13.19,13.19,0,0,1,40.348,41.4a15.05,15.05,0,0,1-10.8,4.723,12,12,0,0,1-6.187-1.647l-.2-.118-.1.211a1.308,1.308,0,0,1-.692.663,11.3,11.3,0,0,1-4.314.856,12.928,12.928,0,0,1-7.6-2.6A15.668,15.668,0,0,1,5.38,37.176a13.1,13.1,0,0,1-1.05-6.92c.017-.127.037-.253.057-.379l.038-.234-.237-.01a1.315,1.315,0,0,1-.942-.46C.079,25.442-.466,20.05,1.824,15.1A14.865,14.865,0,0,1,6.438,9.367,12.043,12.043,0,0,1,12.3,7.047l.228-.024L12.488,6.8a1.306,1.306,0,0,1,.191-.969A12.34,12.34,0,0,1,23.258.422,14.606,14.606,0,0,1,34.264,5.269,11.916,11.916,0,0,1,36.1,8.158l.157.351.211-.322a1.307,1.307,0,0,1,.211-.249,1.325,1.325,0,0,1,1.237-.3,11.833,11.833,0,0,1,7.047,5.472,15.143,15.143,0,0,1,2.068,8.158l-.013.432.348-.255a38.016,38.016,0,0,1,8.774-5.006.551.551,0,0,1,.714.46,17.568,17.568,0,0,1-2.68,11.584l-.209.336.4-.014A11.032,11.032,0,0,1,63.429,32.3a.554.554,0,0,1,.056.688c-4.227,6.225-9.742,7.547-13.624,7.56Z" transform="translate(0)" fill="#ff1378"/>
    <path id="Path_132" data-name="Path 132" d="M50.21,183.023l-.019-.1-.091-.047a16.851,16.851,0,0,1-2.022-1.232,12.915,12.915,0,0,1-4.492-4.986,19.1,19.1,0,0,1-2.228-6.869l-.06-.441-.3.327a11.229,11.229,0,0,0-2.07,12.6c2.119,4.857,6.917,8.25,11.669,8.25a10.205,10.205,0,0,0,3.9-.774l.311-.128-.25-.224c-2.643-2.373-3.941-4.281-4.339-6.38m.383,7.084c-4.589,0-9.229-3.289-11.282-8a10.8,10.8,0,0,1,1.694-11.817,19.294,19.294,0,0,0,2.21,6.565,13.312,13.312,0,0,0,4.626,5.134,17.227,17.227,0,0,0,1.974,1.211c.425,2.088,1.692,3.986,4.2,6.285a9.763,9.763,0,0,1-3.422.619" transform="translate(-32.535 -145.543)" fill="#ff1378"/>
    <path id="Path_133" data-name="Path 133" d="M17.817,71.579l.09-.05.016-.1C18.786,66,22.15,61.7,27.651,59.012l.4-.195-.4-.186A11.471,11.471,0,0,0,22.8,57.51a10.739,10.739,0,0,0-6.39,2.17,13.76,13.76,0,0,0-4.269,5.312c-2.108,4.554-1.624,9.5,1.264,12.9l.219.258.135-.31c.151-.346.294-.684.434-1.014,1-2.362,1.793-4.228,3.62-5.242m-4.008,5.077q-.145.341-.3.694c-2.585-3.263-2.969-7.9-.985-12.182a13.339,13.339,0,0,1,4.136-5.149,10.321,10.321,0,0,1,6.14-2.087,10.9,10.9,0,0,1,4.26.9c-5.359,2.747-8.653,7.034-9.542,12.428-1.89,1.1-2.737,3.091-3.714,5.395" transform="translate(-9.322 -49.426)" fill="#ff1378"/>
    <path id="Path_134" data-name="Path 134" d="M161.869,227.7l-.293.169c-2.628,1.512-4.618,2.186-6.453,2.186a7.161,7.161,0,0,1-.945-.062l-.1-.014-.074.072a15.61,15.61,0,0,1-11.234,4.763,19.425,19.425,0,0,1-3.552-.343l-.436-.081.212.389a10.818,10.818,0,0,0,9.83,5.934,13.93,13.93,0,0,0,9.993-4.373,11.014,11.014,0,0,0,3.075-8.3Zm-22.286,7.264a19.578,19.578,0,0,0,3.186.272,16,16,0,0,0,11.456-4.813,7.6,7.6,0,0,0,.9.053,13.091,13.091,0,0,0,6.365-2.073,10.629,10.629,0,0,1-2.98,7.65,13.5,13.5,0,0,1-9.685,4.239,10.366,10.366,0,0,1-9.241-5.328" transform="translate(-119.273 -195.693)" fill="#ff1378"/>
    <path id="Path_135" data-name="Path 135" d="M312.774,140.5c4.337-4.258,6.374-9.017,6.056-14.145l-.018-.3-.274.115a45.615,45.615,0,0,0-8.5,5.229.554.554,0,0,1-.105.064l-.1.048-.018.109a13.334,13.334,0,0,1-1.78,4.849l-.622,1.011,6.969-5.5a.551.551,0,1,1,.682.865l-8.754,6.9.121.164a1.308,1.308,0,0,1,.256.688,11.639,11.639,0,0,1-.541,4.379l-.165.513.47-.265a31.145,31.145,0,0,0,6.318-4.734m-5.661.079a1.717,1.717,0,0,0-.225-.738l8.443-6.659a.972.972,0,1,0-1.2-1.527l-5.205,4.105a13.953,13.953,0,0,0,1.3-3.968.882.882,0,0,0,.085-.06,46.389,46.389,0,0,1,8.121-5.052c.213,4.887-1.787,9.433-5.947,13.518a30.689,30.689,0,0,1-5.773,4.4,12.034,12.034,0,0,0,.407-4.024" transform="translate(-262.975 -108.342)" fill="#ff1378"/>
    <path id="Path_136" data-name="Path 136" d="M327.328,215.527l-.134-.127c-2.826-2.683-5.84-2.858-8.676-2.647a.559.559,0,0,1-.162-.015l-.133-.03-.082.109a25.368,25.368,0,0,1-2.593,2.954c-.59.577-1.226,1.148-1.89,1.7l-.97.8,5.645-2.109a.551.551,0,0,1,.386,1.031l-10.364,3.873.563.19a18.754,18.754,0,0,0,5.9.982h.113a14.71,14.71,0,0,0,12.3-6.558Zm-12.517,6.287a18.24,18.24,0,0,1-5.183-.776l9.237-3.452a.972.972,0,1,0-.681-1.822l-3.354,1.253c.349-.311.687-.627,1.012-.944a25.876,25.876,0,0,0,2.56-2.9.873.873,0,0,0,.147,0c2.694-.2,5.551-.043,8.219,2.406a14.272,14.272,0,0,1-11.847,6.234Z" transform="translate(-265.01 -182.793)" fill="#ff1378"/>
    <path id="Path_137" data-name="Path 137" d="M74.715,155.041l-.344-.181.035.387a14.933,14.933,0,0,0,1.643,5.728c.163.276.3.5.436.7a14.305,14.305,0,0,0,3.753,3.813,13.056,13.056,0,0,0,6.963,1.949,13.738,13.738,0,0,0,10.07-4.294,14.447,14.447,0,0,0,3.54-11.23l-.032-.428-.319.287c-4.638,4.168-9.584,6.282-14.7,6.282a23.727,23.727,0,0,1-11.048-3.013m22.248,7.816a13.315,13.315,0,0,1-9.76,4.159,12.629,12.629,0,0,1-6.73-1.878,13.874,13.874,0,0,1-3.635-3.7c-.131-.2-.265-.413-.419-.674a14.337,14.337,0,0,1-1.552-5.173,23.925,23.925,0,0,0,10.9,2.881c5.1,0,10.031-2.053,14.655-6.1a13.906,13.906,0,0,1-3.455,10.483" transform="translate(-63.917 -130.192)" fill="#ff1378"/>
    <path id="Path_138" data-name="Path 138" d="M167.626,91.942l.246-.117a20.835,20.835,0,0,0,6.737-5.2l.085-.1-.048-.12c-1.98-4.967-5.359-7.781-10.044-8.364l-.1-.013-.073.076a15.678,15.678,0,0,0-2.909,4.191l-.08.17.159.1c3.307,2.052,5.151,4.862,5.98,9.112Zm-5.65-9.637a15.278,15.278,0,0,1,2.678-3.833c4.429.586,7.641,3.266,9.551,7.968a20.449,20.449,0,0,1-6.272,4.886,13.162,13.162,0,0,0-5.958-9.021" transform="translate(-138.742 -67.059)" fill="#ff1378"/>
    <path id="Path_139" data-name="Path 139" d="M255.758,84.977l-.221.385.438-.072c6.668-1.092,9.314-6.417,9.566-11.037a14.021,14.021,0,0,0-1.9-7.9,10.752,10.752,0,0,0-6.4-4.978l-.325-.09.061.332c.642,3.5.5,5.806-.46,7.711l-.046.091.043.093a16.015,16.015,0,0,1-.758,15.469m1.7-23.1a10.361,10.361,0,0,1,5.825,4.692,13.6,13.6,0,0,1,1.84,7.663c-.238,4.354-2.676,9.357-8.777,10.565a16.348,16.348,0,0,0,.6-15.372c.938-1.912,1.094-4.191.513-7.549" transform="translate(-219.618 -52.668)" fill="#ff1378"/>
    <path id="Path_140" data-name="Path 140" d="M73.556,88.048l-.031.147.129.078a22.863,22.863,0,0,0,8.024,2.952l.257.048-.008-.261c-.174-5.983,1.255-10.495,4.5-14.2l.335-.383-.507.033c-6.977.46-11.129,4.25-12.693,11.586M81.5,90.761A22.331,22.331,0,0,1,74,87.989c1.5-6.852,5.359-10.477,11.773-11.066-3.036,3.66-4.4,8.078-4.275,13.839" transform="translate(-63.19 -65.686)" fill="#ff1378"/>
    <path id="Path_141" data-name="Path 141" d="M102.926,18.886l.073.073.1-.013a19.022,19.022,0,0,1,2.335-.148,15.529,15.529,0,0,1,5.424.945,16.962,16.962,0,0,1,6.668,4.694l.3.331.067-.441a10.916,10.916,0,0,0-2.45-9.028,13.492,13.492,0,0,0-10.171-4.464,11.257,11.257,0,0,0-9.659,4.911l-.185.281.333.044c3.515.464,5.657,1.306,7.164,2.815m2.346-7.629a13.066,13.066,0,0,1,9.852,4.317,10.432,10.432,0,0,1,2.412,8.248,17.185,17.185,0,0,0-6.529-4.475,15.95,15.95,0,0,0-5.57-.971,19.358,19.358,0,0,0-2.286.139c-1.523-1.485-3.635-2.337-7-2.816a10.885,10.885,0,0,1,9.117-4.443" transform="translate(-82.014 -9.312)" fill="#ff1378"/>
    <path id="Path_142" data-name="Path 142" d="M146.446,122.482h0c-.213,0-.256.131-.265.188a.214.214,0,0,0,0,.056,14.218,14.218,0,0,0-.839,8.422l.024.142.14.03a10.324,10.324,0,0,0,2.133.24,7.1,7.1,0,0,0,3.9-1.117.76.76,0,0,0,.33-.571c.183-1.3-1.548-4.455-3.1-6.2a3.535,3.535,0,0,0-2.322-1.187m5.008,7.33a.367.367,0,0,1-.138.274,6.687,6.687,0,0,1-3.678,1.052,9.767,9.767,0,0,1-1.9-.2,13.747,13.747,0,0,1,.825-8.024,3.215,3.215,0,0,1,1.894,1.037c1.637,1.839,3.151,4.8,3,5.863" transform="translate(-124.679 -105.265)" fill="#ff1378"/>
  </g>
</svg>
