<svg xmlns="http://www.w3.org/2000/svg" xmlns:xlink="http://www.w3.org/1999/xlink" width="66.658" height="62.98" viewBox="0 0 66.658 62.98">
  <defs>
    <clipPath id="clip-path">
      <rect id="Rectangle_382" data-name="Rectangle 382" width="66.658" height="62.98" fill="#ff1378"/>
    </clipPath>
  </defs>
  <g id="Group_2009" data-name="Group 2009" transform="translate(66.658 62.98) rotate(180)">
    <g id="Group_2008" data-name="Group 2008" transform="translate(0 0.001)" clip-path="url(#clip-path)">
      <path id="Path_2906" data-name="Path 2906" d="M16.158,1.078c-.651.944-.6,2.153.181,3.567a6.306,6.306,0,0,1,.712,4.092,8.806,8.806,0,0,1-1.507,3.018l-.219.358a9.812,9.812,0,0,1-3.046,3.516,13,13,0,0,1-1.232.642,12.638,12.638,0,0,0-1.767.972,12.955,12.955,0,0,0-2.088,1.916,11.488,11.488,0,0,1-1.335,1.288,11.388,11.388,0,0,1-1.474.893,17.287,17.287,0,0,0-1.6.967A5.692,5.692,0,0,0,.212,26.943a5.858,5.858,0,0,0,.2,1.149,3.477,3.477,0,0,1,.1.521,3.012,3.012,0,0,1-.135.521c-.051.153-.1.326-.149.512a7.491,7.491,0,0,0,.507,5,18.9,18.9,0,0,0,2.2,3.637l1.093,8.008A1.845,1.845,0,0,0,5.6,47.87a19.687,19.687,0,0,1,3.813.916l.679.251a5.578,5.578,0,0,0,1.949.47c.172,0,.335,0,.512,0a4.76,4.76,0,0,0,2.39-.874,1.448,1.448,0,0,1,.837-.344,1.151,1.151,0,0,1,.488.1,7.191,7.191,0,0,0,2.1.353c.279.009.535,0,.772-.009a7.749,7.749,0,0,0,.772-.088c.149-.019.293-.037.535-.056a7.312,7.312,0,0,1,.879.065,7.845,7.845,0,0,1,1.1.153,6.468,6.468,0,0,1,.739.191,1.914,1.914,0,0,1,.5.237,4.137,4.137,0,0,0,.963.474,4.435,4.435,0,0,0,1.73.246,4.866,4.866,0,0,1,1.051.065,4.455,4.455,0,0,1,.623.163,8.651,8.651,0,0,1,.865.372c.3.135.637.293,1.13.479a16.663,16.663,0,0,0,1.674.535l.27,9.626a1.847,1.847,0,0,0,.572,1.288,1.824,1.824,0,0,0,1.316.507l13.56-.344a1.854,1.854,0,0,0,1.8-1.828l.233-23.9,15.3.521a1.845,1.845,0,0,0,1.758-1.121,1.892,1.892,0,0,0,.149-.725,1.835,1.835,0,0,0-.553-1.311c-1.177-1.158-2.325-2.353-3.455-3.534s-2.307-2.414-3.53-3.618l-.181-.172A5.258,5.258,0,0,1,57.774,25.5a2.584,2.584,0,0,1-.339-1.26,6.15,6.15,0,0,0-.479-2.069c-.865-2.046-2.627-3.074-6.148-5.125a4.653,4.653,0,0,0-2.641-.9,2.685,2.685,0,0,0-.66.121A3.609,3.609,0,0,0,45.279,19.1a3.393,3.393,0,0,1-.646,1.418,2.84,2.84,0,0,1-1.865.693,4.642,4.642,0,0,1-1.311-.1c-1.59-.363-2.651-1.874-4.255-4.162a14,14,0,0,1-1.116-1.855,10.368,10.368,0,0,0-1.632-2.432,16.691,16.691,0,0,0-1.632-1.623,3.327,3.327,0,0,1-1.042-1.26,3.4,3.4,0,0,1-.3-1.023,10.925,10.925,0,0,0-.684-2.372,9.481,9.481,0,0,0-1.944-3.372C27.821,1.97,26.682,1.612,22.71.724A18.322,18.322,0,0,0,18.176.008a2.54,2.54,0,0,0-2.018,1.07M40.782,24.083a8.045,8.045,0,0,0,2.176.167,5.792,5.792,0,0,0,3.874-1.628,6.123,6.123,0,0,0,1.377-2.688c.047-.153.153-.512.237-.7.167.074.442.223.828.446,2.934,1.707,4.409,2.567,4.878,3.678a3.255,3.255,0,0,1,.246,1.149,5.626,5.626,0,0,0,.674,2.409,8.386,8.386,0,0,0,1.776,2.255l.479-.507-.339.637c1.144,1.125,2.251,2.283,3.33,3.409l.135.135q.684.718,1.381,1.442L47.99,33.812a1.508,1.508,0,0,0-1.1.423,1.533,1.533,0,0,0-.474,1.088l-.233,24.3L34.978,59.9l-.27-9.608a1.529,1.529,0,0,0-1.251-1.46,13.327,13.327,0,0,1-2.358-.656c-.386-.149-.651-.27-.991-.428a10.058,10.058,0,0,0-1.093-.451,5.647,5.647,0,0,0-1.121-.293,7.655,7.655,0,0,0-1.623-.107,1.459,1.459,0,0,1-.642-.07,1.605,1.605,0,0,1-.344-.177,4.69,4.69,0,0,0-1.149-.549c-.474-.158-.893-.246-1.088-.293a12.5,12.5,0,0,0-1.46-.2,9.122,9.122,0,0,0-1.386-.065l-.66.037v.033l-.14.019c-.144.023-.284.042-.451.056-.149,0-.312.009-.484,0a4.185,4.185,0,0,1-1.3-.223,4.09,4.09,0,0,0-1.479-.233,4.345,4.345,0,0,0-2.386.823,1.833,1.833,0,0,1-.939.4,1.273,1.273,0,0,1-.191,0,2.932,2.932,0,0,1-1.018-.284c-.2-.074-.442-.167-.73-.27A23.018,23.018,0,0,0,6.922,45L5.9,37.481a1.573,1.573,0,0,0-.293-.7c-1.474-1.958-2.995-4.227-2.437-6.362.033-.121.07-.242.121-.4a4.92,4.92,0,0,0,.265-1.3,4.739,4.739,0,0,0-.186-1.344,4.193,4.193,0,0,1-.121-.614c-.023-.972.972-1.735,1.288-1.962a13.862,13.862,0,0,1,1.372-.814,13.649,13.649,0,0,0,1.8-1.111,14.191,14.191,0,0,0,1.73-1.651,10.58,10.58,0,0,1,1.576-1.47,11.449,11.449,0,0,1,1.409-.763A14.2,14.2,0,0,0,13.9,18.2a12.888,12.888,0,0,0,4.027-4.52l.2-.316a11.492,11.492,0,0,0,1.911-4.046,9.245,9.245,0,0,0-1.009-6.092l-.051-.1-.023-.042c.6.079,1.581.274,3.092.614,3.916.87,4.278,1.1,4.632,1.456a6.664,6.664,0,0,1,1.284,2.372,7.949,7.949,0,0,1,.516,1.781,6.415,6.415,0,0,0,.544,1.772A6.3,6.3,0,0,0,30.8,13.317a13.7,13.7,0,0,1,1.363,1.349,7.539,7.539,0,0,1,1.218,1.818,15.66,15.66,0,0,0,1.33,2.214c1.79,2.558,3.339,4.762,6.073,5.385m6.334,11.245Z" transform="translate(0.002 -0.001)" fill="#ff1378"/>
      <path id="Path_2907" data-name="Path 2907" d="M6.09,8.608,3.1,11.691l4.241.693,1.972,4.032,1.809-3.985,4.213-.591L12.206,8.682l.632-4.395L9.1,6.32,5.277,4.194Z" transform="translate(11.3 15.309)" fill="#ff1378"/>
    </g>
  </g>
</svg>
