<svg xmlns="http://www.w3.org/2000/svg" xmlns:xlink="http://www.w3.org/1999/xlink" width="70.625" height="60.497" viewBox="0 0 70.625 60.497">
  <defs>
    <clipPath id="clip-path">
      <rect id="Rectangle_383" data-name="Rectangle 383" width="70.625" height="60.497" fill="#ff1378"/>
    </clipPath>
  </defs>
  <g id="Group_2011" data-name="Group 2011" transform="translate(0 0)">
    <g id="Group_2010" data-name="Group 2010" transform="translate(0 0)" clip-path="url(#clip-path)">
      <path id="Path_2908" data-name="Path 2908" d="M26.657,15.774a22.557,22.557,0,1,0,17.31,28.959,22.819,22.819,0,0,0,4.2.39A22.586,22.586,0,0,0,70.625,22.562v-.1a22.5,22.5,0,0,0-43.968-6.684M22.651,56.788A18.857,18.857,0,0,1,3.705,38.02v-.089A18.884,18.884,0,0,1,22.478,19.074a18.675,18.675,0,0,1,3.345.321,22.327,22.327,0,0,0-.321,3.167v.1a22.355,22.355,0,0,0,14.914,21.06A18.809,18.809,0,0,1,22.651,56.788M61.337,9.164A18.7,18.7,0,0,1,66.92,22.473v.089A18.876,18.876,0,0,1,48.152,41.419a19.273,19.273,0,0,1-3.345-.311,22.466,22.466,0,0,0,.321-3.177v-.1A22.529,22.529,0,0,0,30.2,16.787,18.78,18.78,0,0,1,61.337,9.164" transform="translate(0 0.001)" fill="#ff1378"/>
    </g>
  </g>
</svg>
