<svg id="Group_2131" data-name="Group 2131" xmlns="http://www.w3.org/2000/svg" xmlns:xlink="http://www.w3.org/1999/xlink" width="61.154" height="48.367" viewBox="0 0 61.154 48.367">
  <defs>
    <clipPath id="clip-path">
      <rect id="Rectangle_62" data-name="Rectangle 62" width="61.154" height="48.367" fill="#9a9a9a"/>
    </clipPath>
  </defs>
  <g id="Group_307" data-name="Group 307" clip-path="url(#clip-path)">
    <path id="Path_116" data-name="Path 116" d="M181.424,100.415a12.746,12.746,0,0,0,2.686,10.473.963.963,0,1,0,1.489-1.223,10.846,10.846,0,1,1,18.873-9.623.963.963,0,1,0,1.864-.487,12.834,12.834,0,0,0-10-9.33,12.771,12.771,0,0,0-14.913,10.19" transform="translate(-156.283 -77.624)" fill="#9a9a9a"/>
    <path id="Path_117" data-name="Path 117" d="M288,31.3a.976.976,0,0,0,.179.017.963.963,0,0,0,.946-.786l1.207-6.418a.963.963,0,1,0-1.894-.356l-1.207,6.418A.965.965,0,0,0,288,31.3" transform="translate(-247.718 -19.816)" fill="#9a9a9a"/>
    <path id="Path_118" data-name="Path 118" d="M245.778,10.524a.965.965,0,0,0,.955.84.945.945,0,0,0,.124-.008.964.964,0,0,0,.832-1.079L246.473.841a.964.964,0,0,0-1.911.246Z" transform="translate(-210.922 0)" fill="#9a9a9a"/>
    <path id="Path_119" data-name="Path 119" d="M204.181,43.938a.968.968,0,0,0,.871.551.964.964,0,0,0,.87-1.376l-2.683-5.666a.963.963,0,1,0-1.741.825Z" transform="translate(-173.706 -31.822)" fill="#9a9a9a"/>
    <path id="Path_120" data-name="Path 120" d="M148.99,51.9a.963.963,0,0,0,1.362.039.963.963,0,0,0,.039-1.362l-7.053-7.473a.956.956,0,0,0-.673-.3.945.945,0,0,0-.689.262.963.963,0,0,0-.039,1.362Z" transform="translate(-122.19 -36.919)" fill="#9a9a9a"/>
    <path id="Path_121" data-name="Path 121" d="M132.6,103.767l5.523,3.018a.964.964,0,0,0,.924-1.691l-5.523-3.018a.964.964,0,0,0-.924,1.691" transform="translate(-113.928 -87.936)" fill="#9a9a9a"/>
    <path id="Path_122" data-name="Path 122" d="M91.729,144.511l9.611,1.808a.977.977,0,0,0,.179.017.964.964,0,0,0,.177-1.911l-9.611-1.808a.963.963,0,0,0-.356,1.894" transform="translate(-78.436 -122.99)" fill="#9a9a9a"/>
    <path id="Path_123" data-name="Path 123" d="M113.553,189.763a.953.953,0,0,0-.711-.193l-7.622.982a.963.963,0,0,0,.122,1.919.977.977,0,0,0,.124-.008l7.622-.983a.963.963,0,0,0,.464-1.718" transform="translate(-90.026 -163.493)" fill="#9a9a9a"/>
    <path id="Path_124" data-name="Path 124" d="M382.943,155.81a.953.953,0,0,0-.711-.193l-7.048.908a.963.963,0,0,0,.122,1.919.941.941,0,0,0,.124-.008l7.048-.908a.963.963,0,0,0,.465-1.719" transform="translate(-322.862 -134.209)" fill="#9a9a9a"/>
    <path id="Path_125" data-name="Path 125" d="M375.752,99.12a.963.963,0,0,0-1.283-.458l-9.049,4.286a.964.964,0,0,0,.413,1.834.952.952,0,0,0,.412-.093l9.049-4.286a.963.963,0,0,0,.458-1.283" transform="translate(-314.691 -85.013)" fill="#9a9a9a"/>
    <path id="Path_126" data-name="Path 126" d="M345.821,72.226a.957.957,0,0,0,.262.689.963.963,0,0,0,1.362.039l5.15-4.861a.963.963,0,1,0-1.323-1.4l-5.15,4.861a.957.957,0,0,0-.3.673" transform="translate(-298.263 -57.294)" fill="#9a9a9a"/>
    <path id="Path_127" data-name="Path 127" d="M319.565,24.537a.963.963,0,0,0,1.307-.384l5.083-9.3a.963.963,0,1,0-1.691-.924l-5.083,9.3a.965.965,0,0,0,.384,1.308" transform="translate(-275.185 -11.579)" fill="#9a9a9a"/>
    <path id="Path_128" data-name="Path 128" d="M56.643,269.569l-.254.077-.023.007c-8.162,2.512-15.938.031-21.024-2.493-6.9-3.426-13.554-6.31-19.049-4a.963.963,0,0,0,.549,1.836c3.542-.657,7.611,1.647,11.921,4.087,1.566.887,3.186,1.8,4.816,2.594a27.264,27.264,0,0,0,11.895,2.944h0a23.821,23.821,0,0,0,11.916-3.289.963.963,0,0,0-.749-1.761m-22.158-.682a34.168,34.168,0,0,0,13.093,3.689,24.365,24.365,0,0,1-13.158-2.634c-1.575-.764-3.168-1.665-4.708-2.538-1.481-.839-2.907-1.646-4.311-2.341a58.127,58.127,0,0,1,9.085,3.824" transform="translate(-13.543 -226.251)" fill="#9a9a9a"/>
    <path id="Path_129" data-name="Path 129" d="M49.735,183.749a.958.958,0,0,0-.841.928c-.194,6.656-5.666,9.336-10.723,9.624-6.38.363-14.126-1.81-19.784-3.4-1.854-.52-3.455-.969-4.667-1.227C3.682,187.536.273,193.094.132,193.332a.964.964,0,0,0,1.388,1.275c4.824-3.428,9.524-1.553,15.476.822,1.066.425,2.169.865,3.3,1.284q.654.241,1.311.489l.024.009c4.414,1.652,8.978,3.36,15.253,3.785.335.023.676.034,1.012.034a14.911,14.911,0,0,0,9.186-3.183,11.278,11.278,0,0,0,4.174-8.572,15.969,15.969,0,0,0-.477-4.838.967.967,0,0,0-1.047-.687m-31.821,8.809-.04.2c5.788,1.623,13.714,3.844,20.407,3.464a16.014,16.014,0,0,0,6.507-1.742,11.142,11.142,0,0,0,4.406-4.007,8.944,8.944,0,0,1-3.3,5.858,12.9,12.9,0,0,1-8.876,2.74c-5.994-.406-10.424-2.064-14.708-3.667q-.674-.252-1.342-.5c-1.1-.408-2.188-.84-3.236-1.258l-.023-.009a44,44,0,0,0-7.507-2.5,19.99,19.99,0,0,1,3.117.424c1.15.245,2.721.686,4.54,1.2Z" transform="translate(0 -158.472)" fill="#9a9a9a"/>
  </g>
</svg>
