<svg id="Group_2128" data-name="Group 2128" xmlns="http://www.w3.org/2000/svg" xmlns:xlink="http://www.w3.org/1999/xlink" width="55.411" height="48.367" viewBox="0 0 55.411 48.367">
  <defs>
    <clipPath id="clip-path">
      <rect id="Rectangle_58" data-name="Rectangle 58" width="55.411" height="48.367" fill="#9a9a9a"/>
    </clipPath>
  </defs>
  <g id="Group_291" data-name="Group 291" clip-path="url(#clip-path)">
    <path id="Path_99" data-name="Path 99" d="M109.983,147.757a.849.849,0,1,0,.849.849.849.849,0,0,0-.849-.849" transform="translate(-95.428 -129.2)" fill="#9a9a9a"/>
    <path id="Path_100" data-name="Path 100" d="M131.121,129.163a.849.849,0,1,0-.849.849.849.849,0,0,0,.849-.849" transform="translate(-113.168 -112.199)" fill="#9a9a9a"/>
    <path id="Path_101" data-name="Path 101" d="M138.752,154.875a.849.849,0,1,0-.849.849.849.849,0,0,0,.849-.849" transform="translate(-119.84 -134.682)" fill="#9a9a9a"/>
    <path id="Path_102" data-name="Path 102" d="M54.531,28.666H30.525c1.647-4.759,1.315-9.407-.914-12.643a3.2,3.2,0,0,0-.2-1.606A10.938,10.938,0,0,0,36.2,7.268a.879.879,0,0,0-.393-1.033,8.02,8.02,0,0,0-6.636-.682A11.3,11.3,0,0,0,28.226.536a.88.88,0,0,0-.993-.516A7.791,7.791,0,0,0,22.205,3.8a11.871,11.871,0,0,0-1.527,7.872c-4.928.035-10.481,2.723-14.716,7.4-5.8,6.41-7.6,14.847-4.373,20.261A3.425,3.425,0,0,0,2.723,42.6a3.423,3.423,0,0,0,3.48.76,11.706,11.706,0,0,0,4.6.889,18.859,18.859,0,0,0,10.562-3.656A18.815,18.815,0,0,0,55.411,29.546a.879.879,0,0,0-.879-.879m-3.3,1.758a14.352,14.352,0,0,1-28.657,0Zm-16.96-23a9.07,9.07,0,0,1-5.938,5.5,3.779,3.779,0,0,0-.851-.546l1.856-1.532a.879.879,0,1,0-1.119-1.356l-3.344,2.76c-.019.016-.037.032-.054.049l-.059.025c-.2-.071-.4-.135-.609-.194a9.5,9.5,0,0,1,5.175-4.776,6.489,6.489,0,0,1,4.944.067M23.708,4.714a6.4,6.4,0,0,1,3.178-2.769,9.047,9.047,0,0,1,.439,4.4A11.521,11.521,0,0,0,25.78,7.372L26.035,6.1a.879.879,0,0,0-1.724-.345l-.743,3.716a.877.877,0,0,0-.015.209,9.258,9.258,0,0,0-1.088,1.948,9.881,9.881,0,0,1,1.243-6.91M6.567,41.6a.879.879,0,0,0-.838.045A1.6,1.6,0,0,1,3.9,41.3a1.614,1.614,0,0,1-.544-1.74.879.879,0,0,0-.073-.826,11.5,11.5,0,0,1-1.222-8.6,21.458,21.458,0,0,1,5.2-9.881c5.112-5.647,12.206-8.172,17.252-6.14a.879.879,0,0,0,.848-.106,1.564,1.564,0,0,1,1.887.3,1.664,1.664,0,0,1,.578,1.647.879.879,0,0,0,.137.791c2.18,2.9,2.435,7.346.688,11.918H18.646a.879.879,0,0,0-.879.879,18.706,18.706,0,0,0,2.627,9.58C15.647,42.453,10.36,43.4,6.567,41.6m30.022,5.012A17.084,17.084,0,0,1,19.548,30.425h1.269a16.112,16.112,0,0,0,32.18,0h.632A17.084,17.084,0,0,1,36.589,46.609" transform="translate(0 0)" fill="#9a9a9a"/>
    <path id="Path_103" data-name="Path 103" d="M266.26,272.945a3.174,3.174,0,0,0,5.5-3.174l-1.723-2.985a1.184,1.184,0,0,0-2.051,0l-1.723,2.985a3.142,3.142,0,0,0,0,3.174m3.246-5.28h0Zm-1.723,2.985,1.226-2.124,1.226,2.124a1.416,1.416,0,1,1-2.452,0" transform="translate(-232.444 -232.762)" fill="#9a9a9a"/>
    <path id="Path_104" data-name="Path 104" d="M308.321,256.309a3.141,3.141,0,0,0,2.589,1.837q.154.014.307.014a3.174,3.174,0,0,0,.286-6.335l-3.432-.322a1.184,1.184,0,0,0-1.187,1.673Zm3.017-2.733a1.416,1.416,0,1,1-1.419,2l-1.023-2.229Z" transform="translate(-268.247 -219.912)" fill="#9a9a9a"/>
    <path id="Path_105" data-name="Path 105" d="M217.544,261.17a3.18,3.18,0,0,0,.359-.021,3.017,3.017,0,0,0,2.449-1.815l1.372-3.162a1.059,1.059,0,0,0-1.092-1.473l-3.424.393a3.049,3.049,0,0,0,.336,6.078m3.26-4.974h0Zm-4.662,1.311a1.526,1.526,0,0,1,1.238-.918l2.652-.3-1.063,2.449a1.541,1.541,0,1,1-2.828-1.227" transform="translate(-187.562 -222.705)" fill="#9a9a9a"/>
  </g>
</svg>
