<svg id="Group_2130" data-name="Group 2130" xmlns="http://www.w3.org/2000/svg" xmlns:xlink="http://www.w3.org/1999/xlink" width="54.87" height="46.544" viewBox="0 0 54.87 46.544">
  <defs>
    <clipPath id="clip-path">
      <rect id="Rectangle_61" data-name="Rectangle 61" width="54.869" height="46.544" fill="#9a9a9a"/>
    </clipPath>
  </defs>
  <g id="Group_305" data-name="Group 305" clip-path="url(#clip-path)">
    <path id="Path_110" data-name="Path 110" d="M54.378,123.033l-1.947-.924a16.506,16.506,0,0,0-6.987-1.681,19.378,19.378,0,0,0,.6-7.421l-.239-2.142a.859.859,0,0,0-.951-.76l-2.142.239a19.536,19.536,0,0,0-8.572,3.1,19.509,19.509,0,0,0-4.778-7.81l-1.524-1.524a.86.86,0,0,0-1.217,0l-1.524,1.524a19.524,19.524,0,0,0-4.719,7.63,19.562,19.562,0,0,0-8.294-2.922l-2.142-.239a.863.863,0,0,0-.95.76l-.239,2.142a19.391,19.391,0,0,0,.555,7.275,19.352,19.352,0,0,0-6.864,1.827l-1.947.924a.862.862,0,0,0-.409,1.146l.924,1.947a19.45,19.45,0,0,0,24.575,9.827,11.049,11.049,0,0,0,1.961-1.038,11.292,11.292,0,0,0,3.106,1.506,19.473,19.473,0,0,0,23.213-10.3l.924-1.947a.862.862,0,0,0-.409-1.146M10.458,113.2l.143-1.287,1.287.143a17.791,17.791,0,0,1,8,2.951,19.658,19.658,0,0,0-.5,4.4,19.35,19.35,0,0,0,5.1,13.139A17.765,17.765,0,0,1,10.458,113.2M24.9,134.37a17.749,17.749,0,0,1-22.343-8.981l-.555-1.17,1.169-.555a17.628,17.628,0,0,1,6.671-1.692A19.519,19.519,0,0,0,24.9,134.37m3.235-2.417a1.279,1.279,0,0,1-.309.228l-.685.147a1.289,1.289,0,0,1-.836-.375,17.768,17.768,0,0,1,0-25.1l.915-.915.915.915a17.768,17.768,0,0,1,0,25.1M41.9,127.321a19.523,19.523,0,0,0,2.978-5.181,14.925,14.925,0,0,1,6.817,1.525l1.17.555-.555,1.17a17.752,17.752,0,0,1-21.159,9.385,9.029,9.029,0,0,1-1.128-.428A19.375,19.375,0,0,0,41.9,127.321m-1.345-1.075a17.669,17.669,0,0,1-10.668,6.373A19.344,19.344,0,0,0,35.059,119.4a19.692,19.692,0,0,0-.451-4.2,17.76,17.76,0,0,1,8.289-3.153l1.287-.143.143,1.287a17.631,17.631,0,0,1-3.775,13.048" transform="translate(0 -90.712)" fill="#9a9a9a"/>
    <path id="Path_111" data-name="Path 111" d="M20.488,188.264a2.558,2.558,0,1,0-2.558-2.558,2.561,2.561,0,0,0,2.558,2.558m-.836-2.558a.837.837,0,1,1,.836.837.837.837,0,0,1-.836-.837" transform="translate(-15.66 -159.96)" fill="#9a9a9a"/>
    <path id="Path_112" data-name="Path 112" d="M121.176,96.047a2.558,2.558,0,1,0,2.558-2.558,2.561,2.561,0,0,0-2.558,2.558m1.721,0a.837.837,0,1,1,.837.837.838.838,0,0,1-.837-.837" transform="translate(-105.834 -81.653)" fill="#9a9a9a"/>
    <path id="Path_113" data-name="Path 113" d="M273.2,102.464a2.558,2.558,0,1,0,2.558-2.558,2.561,2.561,0,0,0-2.558,2.558m3.395,0a.837.837,0,1,1-.836-.837.837.837,0,0,1,.836.837" transform="translate(-238.612 -87.257)" fill="#9a9a9a"/>
    <path id="Path_114" data-name="Path 114" d="M381.352,186.6a2.558,2.558,0,1,0,2.558-2.558,2.561,2.561,0,0,0-2.558,2.558m2.558.837a.837.837,0,1,1,.837-.837.838.838,0,0,1-.837.837" transform="translate(-333.071 -160.739)" fill="#9a9a9a"/>
    <path id="Path_115" data-name="Path 115" d="M34.906,20.741a.875.875,0,0,0,.148.013.859.859,0,0,0,.847-.714,22.139,22.139,0,0,1,43.5-.6.861.861,0,0,0,1.687-.341,23.861,23.861,0,0,0-46.884.644.86.86,0,0,0,.7,1" transform="translate(-29.863 -0.001)" fill="#9a9a9a"/>
  </g>
</svg>
