<svg id="Group_2129" data-name="Group 2129" xmlns="http://www.w3.org/2000/svg" xmlns:xlink="http://www.w3.org/1999/xlink" width="57.275" height="53.374" viewBox="0 0 57.275 53.374">
  <defs>
    <clipPath id="clip-path">
      <rect id="Rectangle_60" data-name="Rectangle 60" width="57.275" height="53.374" fill="#9a9a9a"/>
    </clipPath>
  </defs>
  <g id="Group_303" data-name="Group 303" clip-path="url(#clip-path)">
    <path id="Path_108" data-name="Path 108" d="M221.818,83.17l-1.1-.33a7.331,7.331,0,0,0-3.125-.247,7.363,7.363,0,0,0,3.846-7.12l-.1-1.14a1.425,1.425,0,0,0-1.543-1.3l-1.14.1a7.33,7.33,0,0,0-3.034.953,7.362,7.362,0,0,0-2.772-7.488l-.917-.685a1.426,1.426,0,0,0-1.994.288l-.685.917a7.3,7.3,0,0,0-1.388,5.454,7.422,7.422,0,0,0,.371,1.475,7.321,7.321,0,0,0-1.82-.229c-.071,0-.142,0-.213,0l-1.144.033a1.425,1.425,0,0,0-1.383,1.465l.033,1.144a7.3,7.3,0,0,0,1.477,4.213l-.177-.01a1.425,1.425,0,0,0-1.5,1.343l-.064,1.143a7.3,7.3,0,0,0,.923,4c-.166-.031-.333-.059-.5-.079l-1.137-.133a1.426,1.426,0,0,0-1.581,1.249l-.133,1.137a7.318,7.318,0,0,0,.4,3.4,7.443,7.443,0,0,0-1.125-.305l-1.125-.211a1.427,1.427,0,0,0-1.663,1.137l-.211,1.125a7.351,7.351,0,0,0,5.425,8.485l-.076.07a21.313,21.313,0,0,1-10.566,5.283.942.942,0,1,0,.311,1.857,23.187,23.187,0,0,0,11.508-5.735q.344-.307.678-.627l.305.387a7.3,7.3,0,0,0,4.909,2.752,7.468,7.468,0,0,0,.882.052,7.3,7.3,0,0,0,4.535-1.577l.9-.708a1.426,1.426,0,0,0,.238-2l-.708-.9a7.368,7.368,0,0,0-7.122-2.682q.421-.622.811-1.27l.954.5a7.353,7.353,0,0,0,9.938-3.06l.535-1.012a1.426,1.426,0,0,0-.593-1.926l-1.012-.535a7.326,7.326,0,0,0-2.14-.738,7.357,7.357,0,0,0,5.435-5.05l.33-1.1a1.427,1.427,0,0,0-.953-1.775m-15.555,15.87a7.26,7.26,0,0,0-.426-1.936,7.4,7.4,0,0,0,1.51.364q-.517.808-1.084,1.572M211.865,84c-.093-.139-.191-.273-.293-.406l.32-.009c-.008.138-.016.276-.026.415m-5.815-1.39a5.475,5.475,0,0,1,5.16,5.662c-.061.261-.126.521-.194.781l-.532-.03a5.47,5.47,0,0,1-5.157-5.766l.038-.685Zm4.417,8.3c-.108.324-.22.648-.34.97-.035.094-.073.186-.109.28a7.349,7.349,0,0,0-.6-1.372,7.452,7.452,0,0,0,.956.117Zm2.036-.185.775.234a7.4,7.4,0,0,0,.828.2,7.407,7.407,0,0,0-1.992.76q.207-.594.389-1.192m1.281-7.2.973-.085q.189-.017.376-.043l-.011.006a7.4,7.4,0,0,0-1.4.972q.035-.425.059-.85m5.04-8.51.683-.06.06.683a5.47,5.47,0,0,1-4.973,5.925l-.683.06-.06-.683a5.47,5.47,0,0,1,4.973-5.925m-8.058-6.765.411-.549.549.411a5.476,5.476,0,0,1,1.106,7.656l-.411.549-.549-.411a5.47,5.47,0,0,1-1.106-7.656m-4.5,7.458.159,0a5.477,5.477,0,0,1,5.466,5.313l.02.686-.686.02a5.47,5.47,0,0,1-5.624-5.311l-.02-.686Zm-3.375,13.838.08-.681.681.08a5.476,5.476,0,0,1,4.8,6.07l-.08.681-.681-.08a5.47,5.47,0,0,1-4.8-6.07m-3.743,5.272.127-.674.674.127a5.47,5.47,0,0,1,4.366,6.386l-.127.674-.674-.127a5.476,5.476,0,0,1-4.366-6.386m11.359,6.111a5.435,5.435,0,0,1,3.652,2.048l.424.539-.539.424a5.477,5.477,0,0,1-7.682-.913l-.424-.539.539-.424a5.435,5.435,0,0,1,4.03-1.134m8.37-7.112-.321.606a5.47,5.47,0,0,1-7.393,2.276l-.606-.321.321-.606a5.476,5.476,0,0,1,7.393-2.277Zm1.766-8.317a5.476,5.476,0,0,1-6.816,3.658l-.657-.2.2-.657a5.47,5.47,0,0,1,6.816-3.658l.657.2Z" transform="translate(-165.556 -56.804)" fill="#9a9a9a"/>
    <path id="Path_109" data-name="Path 109" d="M31.391,13.725a3.4,3.4,0,0,0,1.519-2.37,20.06,20.06,0,0,0,4.335-4.167A4.132,4.132,0,0,0,37.94,3.38,4.184,4.184,0,0,0,35.146.631,19.816,19.816,0,0,0,24.229.981a8.489,8.489,0,0,0-1.852-.2h-.039C15.889.806,9.762,8.59,9.5,8.922A.945.945,0,0,0,9.4,9.1a6.719,6.719,0,0,0-4.982,3.947L.554,21.959a6.725,6.725,0,0,0-.038,5.256C.336,28.892-.562,39.1,3.709,43.371c.176.176.359.341.547.5.132.3,2.6,5.774,7.382,8.48a4.125,4.125,0,0,0,6.105-2.97,18.846,18.846,0,0,0,.2-5.368,3.387,3.387,0,0,0,1.309-3.461L19.2,40.3a20.227,20.227,0,0,1-.618-6.642A5.021,5.021,0,0,0,20.984,31.2l4.093-8.944a5.019,5.019,0,0,0,.3-3.294.941.941,0,0,0,.253-.22,24.6,24.6,0,0,1,5.76-5.021M34.606,2.435a2.273,2.273,0,0,1,1.538,1.512,2.221,2.221,0,0,1-.377,2.074,18.145,18.145,0,0,1-3.214,3.245,17.946,17.946,0,0,0-3.435-5.382,11.441,11.441,0,0,0-2-1.672,16.553,16.553,0,0,1,7.49.222M15.881,49.094a2.242,2.242,0,0,1-3.316,1.616,16.136,16.136,0,0,1-5.222-5.189,10.732,10.732,0,0,0,3.053.419c.1,0,.208,0,.313,0a17.34,17.34,0,0,0,5.42-1.091,17.491,17.491,0,0,1-.249,4.249M17.358,40.7l.055.249a1.5,1.5,0,0,1-.854,1.7c-1.786.772-7.9,3.011-11.519-.611-2.764-2.764-2.942-8.962-2.8-12.4a6.724,6.724,0,0,0,2.669,1.469l10.137,2.849a5.094,5.094,0,0,0,1.38.192c.077,0,.153,0,.23-.008a23.048,23.048,0,0,0,.705,6.566m6.006-19.228L19.272,30.42a3.137,3.137,0,0,1-3.719,1.723L5.416,29.294a4.843,4.843,0,0,1-3.133-6.587l3.86-8.912a4.843,4.843,0,0,1,7.09-2.132l8.988,5.862a3.172,3.172,0,0,1,1.144,3.952m1.151-4.338a4.966,4.966,0,0,0-1.267-1.191L14.26,10.085a6.722,6.722,0,0,0-2.445-.978,30.135,30.135,0,0,1,2.818-2.772c1.947-1.669,4.866-3.661,7.713-3.673h.029c5.1,0,7.858,5.873,8.582,7.676a1.5,1.5,0,0,1-.587,1.805,27.148,27.148,0,0,0-5.854,5" transform="translate(0 0.001)" fill="#9a9a9a"/>
  </g>
</svg>
