<svg xmlns="http://www.w3.org/2000/svg" xmlns:xlink="http://www.w3.org/1999/xlink" width="84.7" height="55.59" viewBox="0 0 84.7 55.59">
  <defs>
    <clipPath id="clip-path">
      <rect id="Rectangle_380" data-name="Rectangle 380" width="84.7" height="55.59" fill="#ff1378"/>
    </clipPath>
  </defs>
  <g id="Group_2005" data-name="Group 2005" transform="translate(84.7 55.59) rotate(180)">
    <g id="Group_2004" data-name="Group 2004" transform="translate(0 0)" clip-path="url(#clip-path)">
      <path id="Path_2901" data-name="Path 2901" d="M49.2,1.29a66.031,66.031,0,0,1-4.666,11.884A17.745,17.745,0,0,0,33.151,9.541c-6.672.208-13.583,3.824-18.494,9.67C10,24.756,7.513,31.387,5.694,37.139c-.4,1.252-.764,2.531-1.138,3.814C3.433,44.856,2.264,48.888.248,52.3a1.779,1.779,0,0,0,1.3,2.666,67.442,67.442,0,0,0,30.087-2.6C40.4,49.35,47.015,44.014,50.263,37.342a20.107,20.107,0,0,0,2.063-8.818,18.981,18.981,0,0,0-5.077-12.939A69.043,69.043,0,0,0,52.617,2.261a1.749,1.749,0,0,0,.068-.483A1.775,1.775,0,0,0,49.2,1.29m-2.13,34.5C44.24,41.608,38.348,46.3,30.48,49A63.031,63.031,0,0,1,4.561,51.73,64.893,64.893,0,0,0,7.97,41.94c.364-1.258.722-2.5,1.107-3.731,1.72-5.42,4.043-11.645,8.3-16.711,4.209-5.014,10.294-8.231,15.89-8.408a14.327,14.327,0,0,1,9.494,3.217C37.106,26.05,28.9,34.614,18.087,41.821a1.774,1.774,0,1,0,1.969,2.952c10.98-7.322,19.419-16,25.322-25.878a15.835,15.835,0,0,1,1.694,16.893" transform="translate(0.001 0.001)" fill="#ff1378"/>
      <path id="Path_2902" data-name="Path 2902" d="M17.459,2.571a45.1,45.1,0,0,1,4.032,7.576,12.534,12.534,0,0,0-6.937,4.375,18.314,18.314,0,0,0-3.32,14.264c.821,4.988,3.191,9.317,5.409,12.892.478.779.992,1.559,1.5,2.338a33.827,33.827,0,0,1,3.991,7.348,1.419,1.419,0,0,0,2.292.6,47.019,47.019,0,0,0,12.294-17.08,25.887,25.887,0,0,0,1.949-9.514,18.167,18.167,0,0,0-1.424-7.233,13.583,13.583,0,0,0-12.96-8.366A48.019,48.019,0,0,0,19.828,1a1.421,1.421,0,1,0-2.37,1.569m17.179,16.7c1.756,4.084,1.564,9.255-.556,14.565A43.442,43.442,0,0,1,24.027,48.454a46.654,46.654,0,0,0-3.508-6c-.5-.759-.992-1.517-1.465-2.276-2.063-3.336-4.277-7.358-5.014-11.858A15.579,15.579,0,0,1,16.768,16.31a9.619,9.619,0,0,1,5.726-3.461,53.326,53.326,0,0,1,2.364,22.729,1.42,1.42,0,1,0,2.827.275,64.371,64.371,0,0,0,.333-6.5,53.291,53.291,0,0,0-2.635-16.633,10.744,10.744,0,0,1,9.255,6.542" transform="translate(46.03 1.526)" fill="#ff1378"/>
    </g>
  </g>
</svg>
