<svg xmlns="http://www.w3.org/2000/svg" width="28.404" height="18.609" viewBox="0 0 28.404 18.609">
  <g id="united-states" transform="translate(0 0)">
    <path id="Path_1164" data-name="Path 1164" d="M27.914,106.885H.49A.49.49,0,0,1,0,106.4V88.766a.49.49,0,0,1,.49-.49H27.914a.49.49,0,0,1,.49.49V106.4A.49.49,0,0,1,27.914,106.885Z" transform="translate(0 -88.276)" fill="#f5f5f5"/>
    <g id="Group_400" data-name="Group 400" transform="translate(0 0)">
      <path id="Path_1165" data-name="Path 1165" d="M28.4,89.708H0v-.942a.49.49,0,0,1,.49-.49H27.914a.49.49,0,0,1,.49.49v.942Z" transform="translate(0 -88.276)" fill="#ff4b55"/>
      <rect id="Rectangle_152" data-name="Rectangle 152" width="28.404" height="1.432" transform="translate(0 5.726)" fill="#ff4b55"/>
      <rect id="Rectangle_153" data-name="Rectangle 153" width="28.404" height="1.432" transform="translate(0 2.863)" fill="#ff4b55"/>
      <path id="Path_1166" data-name="Path 1166" d="M28.4,244.53H.49a.49.49,0,0,1-.49-.49V243.1H28.4Z" transform="translate(0 -234.509)" fill="#ff4b55"/>
      <rect id="Rectangle_154" data-name="Rectangle 154" width="28.404" height="1.432" transform="translate(0 14.315)" fill="#ff4b55"/>
      <path id="Path_1167" data-name="Path 1167" d="M27.914,399.352H.49a.49.49,0,0,1-.49-.49v-.942H28.4v.942A.49.49,0,0,1,27.914,399.352Z" transform="translate(0 -380.743)" fill="#ff4b55"/>
      <rect id="Rectangle_155" data-name="Rectangle 155" width="28.404" height="1.432" transform="translate(0 11.452)" fill="#ff4b55"/>
    </g>
    <path id="Path_1168" data-name="Path 1168" d="M12.733,88.277H.49a.49.49,0,0,0-.49.49v9.041a.49.49,0,0,0,.49.49H12.733a.49.49,0,0,0,.49-.49V88.767A.49.49,0,0,0,12.733,88.277Z" transform="translate(0 -88.277)" fill="#41479b"/>
    <g id="Group_401" data-name="Group 401" transform="translate(0.791 1.092)">
      <path id="Path_1169" data-name="Path 1169" d="M14.837,108l.108.325.343,0a.046.046,0,0,1,.027.083l-.276.2.1.327a.046.046,0,0,1-.071.051l-.279-.2-.279.2a.046.046,0,0,1-.071-.051l.1-.327-.276-.2a.046.046,0,0,1,.027-.083l.343,0L14.75,108A.046.046,0,0,1,14.837,108Z" transform="translate(-14.253 -107.969)" fill="#f5f5f5"/>
      <path id="Path_1170" data-name="Path 1170" d="M14.837,138.655l.108.325.343,0a.046.046,0,0,1,.027.083l-.276.2.1.327a.046.046,0,0,1-.071.051l-.279-.2-.279.2a.046.046,0,0,1-.071-.051l.1-.327-.276-.2a.046.046,0,0,1,.027-.083l.343,0,.108-.325A.046.046,0,0,1,14.837,138.655Z" transform="translate(-14.253 -136.923)" fill="#f5f5f5"/>
      <path id="Path_1171" data-name="Path 1171" d="M14.837,169.309l.108.325.343,0a.046.046,0,0,1,.027.083l-.276.2.1.327a.046.046,0,0,1-.071.052l-.279-.2-.279.2a.046.046,0,0,1-.071-.051l.1-.327-.276-.2a.046.046,0,0,1,.027-.083l.343,0,.108-.325A.046.046,0,0,1,14.837,169.309Z" transform="translate(-14.253 -165.876)" fill="#f5f5f5"/>
      <path id="Path_1172" data-name="Path 1172" d="M14.837,199.963l.108.325.343,0a.046.046,0,0,1,.027.083l-.276.2.1.327a.046.046,0,0,1-.071.051l-.279-.2-.279.2a.046.046,0,0,1-.071-.051l.1-.327-.276-.2a.046.046,0,0,1,.027-.083l.343,0,.108-.325A.046.046,0,0,1,14.837,199.963Z" transform="translate(-14.253 -194.83)" fill="#f5f5f5"/>
      <path id="Path_1173" data-name="Path 1173" d="M14.837,230.617l.108.325.343,0a.046.046,0,0,1,.027.083l-.276.2.1.327a.046.046,0,0,1-.071.051l-.279-.2-.279.2a.046.046,0,0,1-.071-.051l.1-.327-.276-.2a.046.046,0,0,1,.027-.083l.343,0,.108-.325A.046.046,0,0,1,14.837,230.617Z" transform="translate(-14.253 -223.783)" fill="#f5f5f5"/>
      <path id="Path_1174" data-name="Path 1174" d="M38.63,123.03l.108.325.343,0a.046.046,0,0,1,.027.083l-.276.2.1.327a.046.046,0,0,1-.071.051l-.279-.2-.279.2a.046.046,0,0,1-.071-.051l.1-.327-.276-.2a.046.046,0,0,1,.027-.083l.343,0,.108-.325A.046.046,0,0,1,38.63,123.03Z" transform="translate(-36.726 -122.165)" fill="#f5f5f5"/>
      <path id="Path_1175" data-name="Path 1175" d="M38.63,153.684l.108.325.343,0a.046.046,0,0,1,.027.083l-.276.2.1.327a.046.046,0,0,1-.071.051l-.279-.2-.279.2a.046.046,0,0,1-.071-.051l.1-.327-.276-.2a.046.046,0,0,1,.027-.083l.343,0,.108-.325A.046.046,0,0,1,38.63,153.684Z" transform="translate(-36.726 -151.118)" fill="#f5f5f5"/>
      <path id="Path_1176" data-name="Path 1176" d="M38.63,184.338l.108.325.343,0a.046.046,0,0,1,.027.083l-.276.2.1.327a.046.046,0,0,1-.071.051l-.279-.2-.279.2a.046.046,0,0,1-.071-.051l.1-.327-.276-.2a.046.046,0,0,1,.027-.083l.343,0,.108-.325A.046.046,0,0,1,38.63,184.338Z" transform="translate(-36.726 -180.072)" fill="#f5f5f5"/>
      <path id="Path_1177" data-name="Path 1177" d="M38.63,214.993l.108.325.343,0a.046.046,0,0,1,.027.083l-.276.2.1.327a.046.046,0,0,1-.071.052l-.279-.2-.279.2a.046.046,0,0,1-.071-.052l.1-.327-.276-.2a.046.046,0,0,1,.027-.083l.343,0,.108-.325A.046.046,0,0,1,38.63,214.993Z" transform="translate(-36.726 -209.026)" fill="#f5f5f5"/>
      <path id="Path_1178" data-name="Path 1178" d="M62.423,108l.108.325.343,0a.046.046,0,0,1,.027.083l-.276.2.1.327a.046.046,0,0,1-.071.051l-.279-.2-.279.2a.046.046,0,0,1-.071-.051l.1-.327-.276-.2a.046.046,0,0,1,.027-.083l.343,0,.108-.325A.046.046,0,0,1,62.423,108Z" transform="translate(-59.199 -107.969)" fill="#f5f5f5"/>
      <path id="Path_1179" data-name="Path 1179" d="M62.423,138.655l.108.325.343,0a.046.046,0,0,1,.027.083l-.276.2.1.327a.046.046,0,0,1-.071.051l-.279-.2-.279.2a.046.046,0,0,1-.071-.051l.1-.327-.276-.2a.046.046,0,0,1,.027-.083l.343,0,.108-.325A.046.046,0,0,1,62.423,138.655Z" transform="translate(-59.199 -136.923)" fill="#f5f5f5"/>
      <path id="Path_1180" data-name="Path 1180" d="M62.423,169.309l.108.325.343,0a.046.046,0,0,1,.027.083l-.276.2.1.327a.046.046,0,0,1-.071.051l-.279-.2-.279.2a.046.046,0,0,1-.071-.051l.1-.327-.276-.2a.046.046,0,0,1,.027-.083l.343,0,.108-.325A.046.046,0,0,1,62.423,169.309Z" transform="translate(-59.199 -165.876)" fill="#f5f5f5"/>
      <path id="Path_1181" data-name="Path 1181" d="M62.423,199.963l.108.325.343,0a.046.046,0,0,1,.027.083l-.276.2.1.327a.046.046,0,0,1-.071.051l-.279-.2-.279.2a.046.046,0,0,1-.071-.051l.1-.327-.276-.2a.046.046,0,0,1,.027-.083l.343,0,.108-.325A.046.046,0,0,1,62.423,199.963Z" transform="translate(-59.199 -194.83)" fill="#f5f5f5"/>
      <path id="Path_1182" data-name="Path 1182" d="M62.423,230.617l.108.325.343,0a.046.046,0,0,1,.027.083l-.276.2.1.327a.046.046,0,0,1-.071.051l-.279-.2-.279.2a.046.046,0,0,1-.071-.051l.1-.327-.276-.2a.046.046,0,0,1,.027-.083l.343,0,.108-.325A.046.046,0,0,1,62.423,230.617Z" transform="translate(-59.199 -223.783)" fill="#f5f5f5"/>
      <path id="Path_1183" data-name="Path 1183" d="M86.217,123.03l.108.325.343,0a.046.046,0,0,1,.027.083l-.276.2.1.327a.046.046,0,0,1-.071.051l-.279-.2-.279.2a.046.046,0,0,1-.071-.051l.1-.327-.276-.2a.046.046,0,0,1,.027-.083l.343,0,.108-.325A.046.046,0,0,1,86.217,123.03Z" transform="translate(-81.673 -122.165)" fill="#f5f5f5"/>
      <path id="Path_1184" data-name="Path 1184" d="M86.217,153.684l.108.325.343,0a.046.046,0,0,1,.027.083l-.276.2.1.327a.046.046,0,0,1-.071.051l-.279-.2-.279.2a.046.046,0,0,1-.071-.051l.1-.327-.276-.2a.046.046,0,0,1,.027-.083l.343,0,.108-.325A.046.046,0,0,1,86.217,153.684Z" transform="translate(-81.673 -151.118)" fill="#f5f5f5"/>
      <path id="Path_1185" data-name="Path 1185" d="M86.217,184.338l.108.325.343,0a.046.046,0,0,1,.027.083l-.276.2.1.327a.046.046,0,0,1-.071.051l-.279-.2-.279.2a.046.046,0,0,1-.071-.051l.1-.327-.276-.2a.046.046,0,0,1,.027-.083l.343,0,.108-.325A.046.046,0,0,1,86.217,184.338Z" transform="translate(-81.673 -180.072)" fill="#f5f5f5"/>
      <path id="Path_1186" data-name="Path 1186" d="M86.217,214.993l.108.325.343,0a.046.046,0,0,1,.027.083l-.276.2.1.327a.046.046,0,0,1-.071.052l-.279-.2-.279.2a.046.046,0,0,1-.071-.052l.1-.327-.276-.2a.046.046,0,0,1,.027-.083l.343,0,.108-.325A.046.046,0,0,1,86.217,214.993Z" transform="translate(-81.673 -209.026)" fill="#f5f5f5"/>
      <path id="Path_1187" data-name="Path 1187" d="M110.009,108l.108.325.343,0a.046.046,0,0,1,.027.083l-.276.2.1.327a.046.046,0,0,1-.071.051l-.279-.2-.279.2a.046.046,0,0,1-.071-.051l.1-.327-.276-.2a.046.046,0,0,1,.027-.083l.343,0,.108-.325A.046.046,0,0,1,110.009,108Z" transform="translate(-104.145 -107.969)" fill="#f5f5f5"/>
      <path id="Path_1188" data-name="Path 1188" d="M110.009,138.655l.108.325.343,0a.046.046,0,0,1,.027.083l-.276.2.1.327a.046.046,0,0,1-.071.051l-.279-.2-.279.2a.046.046,0,0,1-.071-.051l.1-.327-.276-.2a.046.046,0,0,1,.027-.083l.343,0,.108-.325A.046.046,0,0,1,110.009,138.655Z" transform="translate(-104.145 -136.923)" fill="#f5f5f5"/>
      <path id="Path_1189" data-name="Path 1189" d="M110.009,169.309l.108.325.343,0a.046.046,0,0,1,.027.083l-.276.2.1.327a.046.046,0,0,1-.071.051l-.279-.2-.279.2a.046.046,0,0,1-.071-.051l.1-.327-.276-.2a.046.046,0,0,1,.027-.083l.343,0,.108-.325A.046.046,0,0,1,110.009,169.309Z" transform="translate(-104.145 -165.876)" fill="#f5f5f5"/>
      <path id="Path_1190" data-name="Path 1190" d="M110.009,199.963l.108.325.343,0a.046.046,0,0,1,.027.083l-.276.2.1.327a.046.046,0,0,1-.071.051l-.279-.2-.279.2a.046.046,0,0,1-.071-.051l.1-.327-.276-.2a.046.046,0,0,1,.027-.083l.343,0,.108-.325A.046.046,0,0,1,110.009,199.963Z" transform="translate(-104.145 -194.83)" fill="#f5f5f5"/>
      <path id="Path_1191" data-name="Path 1191" d="M110.009,230.617l.108.325.343,0a.046.046,0,0,1,.027.083l-.276.2.1.327a.046.046,0,0,1-.071.051l-.279-.2-.279.2a.046.046,0,0,1-.071-.051l.1-.327-.276-.2a.046.046,0,0,1,.027-.083l.343,0,.108-.325A.046.046,0,0,1,110.009,230.617Z" transform="translate(-104.145 -223.783)" fill="#f5f5f5"/>
      <path id="Path_1192" data-name="Path 1192" d="M133.8,123.03l.108.325.343,0a.046.046,0,0,1,.027.083l-.276.2.1.327a.046.046,0,0,1-.071.051l-.279-.2-.279.2a.046.046,0,0,1-.071-.051l.1-.327-.276-.2a.046.046,0,0,1,.027-.083l.343,0,.108-.325A.046.046,0,0,1,133.8,123.03Z" transform="translate(-126.619 -122.165)" fill="#f5f5f5"/>
      <path id="Path_1193" data-name="Path 1193" d="M133.8,153.684l.108.325.343,0a.046.046,0,0,1,.027.083l-.276.2.1.327a.046.046,0,0,1-.071.051l-.279-.2-.279.2a.046.046,0,0,1-.071-.051l.1-.327-.276-.2a.046.046,0,0,1,.027-.083l.343,0,.108-.325A.046.046,0,0,1,133.8,153.684Z" transform="translate(-126.619 -151.118)" fill="#f5f5f5"/>
      <path id="Path_1194" data-name="Path 1194" d="M133.8,184.338l.108.325.343,0a.046.046,0,0,1,.027.083l-.276.2.1.327a.046.046,0,0,1-.071.051l-.279-.2-.279.2a.046.046,0,0,1-.071-.051l.1-.327-.276-.2a.046.046,0,0,1,.027-.083l.343,0,.108-.325A.046.046,0,0,1,133.8,184.338Z" transform="translate(-126.619 -180.072)" fill="#f5f5f5"/>
      <path id="Path_1195" data-name="Path 1195" d="M133.8,214.993l.108.325.343,0a.046.046,0,0,1,.027.083l-.276.2.1.327a.046.046,0,0,1-.071.052l-.279-.2-.279.2a.046.046,0,0,1-.071-.052l.1-.327-.276-.2a.046.046,0,0,1,.027-.083l.343,0,.108-.325A.046.046,0,0,1,133.8,214.993Z" transform="translate(-126.619 -209.026)" fill="#f5f5f5"/>
      <path id="Path_1196" data-name="Path 1196" d="M157.6,108l.108.325.343,0a.046.046,0,0,1,.027.083l-.276.2.1.327a.046.046,0,0,1-.071.051l-.279-.2-.279.2a.046.046,0,0,1-.071-.051l.1-.327-.276-.2a.046.046,0,0,1,.027-.083l.343,0,.108-.325A.046.046,0,0,1,157.6,108Z" transform="translate(-149.093 -107.969)" fill="#f5f5f5"/>
      <path id="Path_1197" data-name="Path 1197" d="M157.6,138.655l.108.325.343,0a.046.046,0,0,1,.027.083l-.276.2.1.327a.046.046,0,0,1-.071.051l-.279-.2-.279.2a.046.046,0,0,1-.071-.051l.1-.327-.276-.2a.046.046,0,0,1,.027-.083l.343,0,.108-.325A.046.046,0,0,1,157.6,138.655Z" transform="translate(-149.093 -136.923)" fill="#f5f5f5"/>
      <path id="Path_1198" data-name="Path 1198" d="M157.6,169.309l.108.325.343,0a.046.046,0,0,1,.027.083l-.276.2.1.327a.046.046,0,0,1-.071.051l-.279-.2-.279.2a.046.046,0,0,1-.071-.051l.1-.327-.276-.2a.046.046,0,0,1,.027-.083l.343,0,.108-.325A.046.046,0,0,1,157.6,169.309Z" transform="translate(-149.093 -165.876)" fill="#f5f5f5"/>
      <path id="Path_1199" data-name="Path 1199" d="M157.6,199.963l.108.325.343,0a.046.046,0,0,1,.027.083l-.276.2.1.327a.046.046,0,0,1-.071.051l-.279-.2-.279.2a.046.046,0,0,1-.071-.051l.1-.327-.276-.2a.046.046,0,0,1,.027-.083l.343,0,.108-.325A.046.046,0,0,1,157.6,199.963Z" transform="translate(-149.093 -194.83)" fill="#f5f5f5"/>
      <path id="Path_1200" data-name="Path 1200" d="M157.6,230.617l.108.325.343,0a.046.046,0,0,1,.027.083l-.276.2.1.327a.046.046,0,0,1-.071.051l-.279-.2-.279.2a.046.046,0,0,1-.071-.051l.1-.327-.276-.2a.046.046,0,0,1,.027-.083l.343,0,.108-.325A.046.046,0,0,1,157.6,230.617Z" transform="translate(-149.093 -223.783)" fill="#f5f5f5"/>
      <path id="Path_1201" data-name="Path 1201" d="M181.39,123.03l.108.325.343,0a.046.046,0,0,1,.027.083l-.276.2.1.327a.046.046,0,0,1-.071.051l-.279-.2-.279.2a.046.046,0,0,1-.071-.051l.1-.327-.276-.2a.046.046,0,0,1,.027-.083l.343,0,.108-.325A.046.046,0,0,1,181.39,123.03Z" transform="translate(-171.566 -122.165)" fill="#f5f5f5"/>
      <path id="Path_1202" data-name="Path 1202" d="M181.39,153.684l.108.325.343,0a.046.046,0,0,1,.027.083l-.276.2.1.327a.046.046,0,0,1-.071.051l-.279-.2-.279.2a.046.046,0,0,1-.071-.051l.1-.327-.276-.2a.046.046,0,0,1,.027-.083l.343,0,.108-.325A.046.046,0,0,1,181.39,153.684Z" transform="translate(-171.566 -151.118)" fill="#f5f5f5"/>
      <path id="Path_1203" data-name="Path 1203" d="M181.39,184.338l.108.325.343,0a.046.046,0,0,1,.027.083l-.276.2.1.327a.046.046,0,0,1-.071.051l-.279-.2-.279.2a.046.046,0,0,1-.071-.051l.1-.327-.276-.2a.046.046,0,0,1,.027-.083l.343,0,.108-.325A.046.046,0,0,1,181.39,184.338Z" transform="translate(-171.566 -180.072)" fill="#f5f5f5"/>
      <path id="Path_1204" data-name="Path 1204" d="M181.39,214.993l.108.325.343,0a.046.046,0,0,1,.027.083l-.276.2.1.327a.046.046,0,0,1-.071.052l-.279-.2-.279.2a.046.046,0,0,1-.071-.052l.1-.327-.276-.2a.046.046,0,0,1,.027-.083l.343,0,.108-.325A.046.046,0,0,1,181.39,214.993Z" transform="translate(-171.566 -209.026)" fill="#f5f5f5"/>
      <path id="Path_1205" data-name="Path 1205" d="M205.184,108l.108.325.343,0a.046.046,0,0,1,.027.083l-.276.2.1.327a.046.046,0,0,1-.071.051l-.279-.2-.279.2a.046.046,0,0,1-.071-.051l.1-.327-.276-.2a.046.046,0,0,1,.027-.083l.343,0L205.1,108A.046.046,0,0,1,205.184,108Z" transform="translate(-194.04 -107.969)" fill="#f5f5f5"/>
      <path id="Path_1206" data-name="Path 1206" d="M205.184,138.655l.108.325.343,0a.046.046,0,0,1,.027.083l-.276.2.1.327a.046.046,0,0,1-.071.051l-.279-.2-.279.2a.046.046,0,0,1-.071-.051l.1-.327-.276-.2a.046.046,0,0,1,.027-.083l.343,0,.108-.325A.046.046,0,0,1,205.184,138.655Z" transform="translate(-194.04 -136.923)" fill="#f5f5f5"/>
      <path id="Path_1207" data-name="Path 1207" d="M205.184,169.309l.108.325.343,0a.046.046,0,0,1,.027.083l-.276.2.1.327a.046.046,0,0,1-.071.051l-.279-.2-.279.2a.046.046,0,0,1-.071-.051l.1-.327-.276-.2a.046.046,0,0,1,.027-.083l.343,0,.108-.325A.046.046,0,0,1,205.184,169.309Z" transform="translate(-194.04 -165.876)" fill="#f5f5f5"/>
      <path id="Path_1208" data-name="Path 1208" d="M205.184,199.963l.108.325.343,0a.046.046,0,0,1,.027.083l-.276.2.1.327a.046.046,0,0,1-.071.051l-.279-.2-.279.2a.046.046,0,0,1-.071-.051l.1-.327-.276-.2a.046.046,0,0,1,.027-.083l.343,0,.108-.325A.046.046,0,0,1,205.184,199.963Z" transform="translate(-194.04 -194.83)" fill="#f5f5f5"/>
      <path id="Path_1209" data-name="Path 1209" d="M205.184,230.617l.108.325.343,0a.046.046,0,0,1,.027.083l-.276.2.1.327a.046.046,0,0,1-.071.051l-.279-.2-.279.2a.046.046,0,0,1-.071-.051l.1-.327-.276-.2a.046.046,0,0,1,.027-.083l.343,0,.108-.325A.046.046,0,0,1,205.184,230.617Z" transform="translate(-194.04 -223.783)" fill="#f5f5f5"/>
    </g>
  </g>
</svg>
