<svg xmlns="http://www.w3.org/2000/svg" width="25" height="19.042" viewBox="0 0 25 19.042">
  <g id="email-2" transform="translate(-5 -13.7)">
    <g id="Group_439" transform="translate(5 13.7)">
      <path id="Path_1236" d="M27.8,13.7H7.2A2.2,2.2,0,0,0,5,15.9V30.544a2.2,2.2,0,0,0,2.2,2.2H27.8a2.2,2.2,0,0,0,2.2-2.2V15.9A2.2,2.2,0,0,0,27.8,13.7Zm-.3,1.464-9.953,9.956L7.508,15.164ZM6.464,30.244V16.194l7.056,6.994ZM7.5,31.278l7.064-7.064,2.472,2.453a.729.729,0,0,0,1.033,0l2.411-2.411L27.5,31.278Zm21.033-1.033-7.019-7.022L28.536,16.2Z" transform="translate(-5 -13.7)" fill="#ff1378"/>
    </g>
  </g>
</svg>
