<svg xmlns="http://www.w3.org/2000/svg" width="8" height="8" viewBox="0 0 10.136 10.156">
  <path id="Path_2310" data-name="Path 2310" d="M-440.813,172.89l.113.031a.891.891,0,0,1,.658.884q0,1.572,0,3.143v.127h.124q1.574,0,3.147,0a.89.89,0,0,1,.906.872.889.889,0,0,1-.9.912c-.759,0-1.517,0-2.276,0h-1.005v3.2a.9.9,0,0,1-.755.975.071.071,0,0,0-.017.01h-.238a.073.073,0,0,0-.017-.01.9.9,0,0,1-.755-.975v-3.2h-.126q-1.569,0-3.138,0a.887.887,0,0,1-.9-.718c0-.019-.012-.037-.018-.056v-.238a.266.266,0,0,0,.015-.036.889.889,0,0,1,.947-.738h3.216v-.131q0-1.57,0-3.141a.867.867,0,0,1,.467-.8,1.928,1.928,0,0,1,.3-.11Z" transform="translate(446 -172.89)"/>
</svg>
