<svg id="PZ_Facebook" xmlns="http://www.w3.org/2000/svg" width="24.458" height="24.458" viewBox="0 0 24.458 24.458">
  <path id="Path_2901" data-name="Path 2901" d="M29.458,17.229a12.229,12.229,0,1,0-14.14,12.08V20.765H12.212V17.229h3.106V14.536c0-3.065,1.826-4.759,4.62-4.759a18.781,18.781,0,0,1,2.737.239v3.008H21.134a1.767,1.767,0,0,0-1.992,1.91v2.294h3.392l-.544,3.536H19.14v8.547A12.236,12.236,0,0,0,29.458,17.229Z" transform="translate(-5 -5)" fill="#ff1378"/>
  <path id="Path_2902" data-name="Path 2902" d="M41.318,33.567l.544-3.536H38.467V27.738a1.767,1.767,0,0,1,1.992-1.91H42V22.819a18.781,18.781,0,0,0-2.737-.239c-2.794,0-4.62,1.693-4.62,4.759v2.693h-3.1v3.536h3.106v8.547a12.645,12.645,0,0,0,1.91.147,12.3,12.3,0,0,0,1.91-.149V33.567Z" transform="translate(-24.328 -17.802)" fill="#fff"/>
</svg>
