<svg id="PZ_Instagram" xmlns="http://www.w3.org/2000/svg" width="23.02" height="23.02" viewBox="0 0 23.02 23.02">
  <path id="Path_2903" data-name="Path 2903" d="M16.51,7.074c3.074,0,3.438.013,4.65.067a6.352,6.352,0,0,1,2.138.4,3.827,3.827,0,0,1,2.184,2.184,6.352,6.352,0,0,1,.4,2.138c.056,1.215.067,1.578.067,4.65s-.013,3.438-.067,4.65a6.352,6.352,0,0,1-.4,2.138A3.827,3.827,0,0,1,23.3,25.482a6.352,6.352,0,0,1-2.138.4c-1.212.056-1.578.067-4.65.067s-3.438-.013-4.65-.067a6.352,6.352,0,0,1-2.138-.4A3.827,3.827,0,0,1,7.537,23.3a6.352,6.352,0,0,1-.4-2.138c-.056-1.215-.067-1.578-.067-4.65s.013-3.438.067-4.65a6.352,6.352,0,0,1,.4-2.138A3.827,3.827,0,0,1,9.722,7.537a6.352,6.352,0,0,1,2.138-.4c1.212-.056,1.576-.067,4.65-.067M16.51,5c-3.126,0-3.517.013-4.745.069A8.465,8.465,0,0,0,8.972,5.6,5.885,5.885,0,0,0,5.606,8.97a8.466,8.466,0,0,0-.535,2.793C5.013,12.993,5,13.384,5,16.51s.013,3.517.069,4.745A8.466,8.466,0,0,0,5.6,24.048,5.885,5.885,0,0,0,8.97,27.414a8.466,8.466,0,0,0,2.793.535c1.23.059,1.622.072,4.747.072s3.517-.013,4.745-.069a8.466,8.466,0,0,0,2.793-.535,5.885,5.885,0,0,0,3.366-3.366,8.465,8.465,0,0,0,.535-2.793c.059-1.23.072-1.622.072-4.747s-.013-3.517-.069-4.745a8.465,8.465,0,0,0-.535-2.793A5.885,5.885,0,0,0,24.05,5.606a8.465,8.465,0,0,0-2.793-.535C20.027,5.013,19.635,5,16.51,5Z" transform="translate(-5 -5)" fill="#ff1378"/>
  <path id="Path_2904" data-name="Path 2904" d="M32.8,26.89A5.911,5.911,0,1,0,38.712,32.8,5.912,5.912,0,0,0,32.8,26.89Zm0,9.748A3.837,3.837,0,1,1,36.638,32.8,3.838,3.838,0,0,1,32.8,36.638Z" transform="translate(-21.291 -21.291)" fill="#ff1378"/>
  <circle id="Ellipse_70" data-name="Ellipse 70" cx="1.381" cy="1.381" r="1.381" transform="translate(16.272 3.985)" fill="#ff1378"/>
</svg>
