<svg id="Logo_Footer" data-name="Logo Footer" xmlns="http://www.w3.org/2000/svg" width="288.633" height="146.207" viewBox="0 0 288.633 146.207">
  <g id="Group_103" data-name="Group 103" transform="translate(0)">
    <g id="Group_98" data-name="Group 98" transform="translate(0 65.096)">
      <path id="Path_596" data-name="Path 596" d="M40.248,51.241a11.337,11.337,0,0,1,.668,2.241,11.547,11.547,0,0,1,.243,2.237,9.162,9.162,0,0,1-2.14,5.97,12.218,12.218,0,0,1-3.9,3.33,9.725,9.725,0,0,1-4.706,1.256,10.6,10.6,0,0,1-3.367-.59,6.474,6.474,0,0,1-2.325-1.145,4.021,4.021,0,0,1-.88-1.367l-.214-1.335a6.133,6.133,0,0,1,.641-2.03,1.554,1.554,0,0,1,1.229-.853l.427.051a1.677,1.677,0,0,1-.214,1.5,4.04,4.04,0,0,0-.637,1.551,1.5,1.5,0,0,0,.1.695,3.451,3.451,0,0,0,1.5,1.765,6,6,0,0,0,2.511.533c.32,0,.661-.02,1.018-.056a8.183,8.183,0,0,0,1.175-.211,7.3,7.3,0,0,0,6.2-6.52l.16-2.352a10.991,10.991,0,0,0-.9-4.6,7.687,7.687,0,0,0-2.853-3.477,16.562,16.562,0,0,0-4.288-2.19,16.649,16.649,0,0,0-4.739-.693L23.835,45l-1.863.16V76.9q0,1.292,2.138,1.293,2.028,0,2.352.639c.177.681-.162,1.018-1.017,1.018H15.023c-.212-.206-.14-.565.214-1.082a.889.889,0,0,1,.6-.361,5.312,5.312,0,0,0,2.2-.427,1.515,1.515,0,0,0,.949-1.5V47.3a.843.843,0,0,0-.241-1.094,3.5,3.5,0,0,0-1.312-.511l-1.92-.479a2,2,0,0,1-.695-.909l1.974-.106h6.039q9.031,0,12.719,1.866a9.715,9.715,0,0,1,4.7,5.171" transform="translate(-14.811 -44.095)" fill="#e85589"/>
      <path id="Path_597" data-name="Path 597" d="M43.12,69.951l.214,1.283-.054.7-.322,1.229a9,9,0,0,1-1.069,2.4A3.842,3.842,0,0,1,39.965,76.9a5.42,5.42,0,0,1-1.816.32,4.014,4.014,0,0,1-2.94-1.229,6.211,6.211,0,0,1-1.654-4.328V61.455a.707.707,0,0,0-.428-.75L32.27,60.6h-.961c-.25-.034-.393-.266-.428-.695l2.082-.322,2.888-.319c.32.034.516.356.587.963V73.583a2.218,2.218,0,0,0,.5,1.394,6.642,6.642,0,0,0,1.4.853l.614.108a2.531,2.531,0,0,0,1.524-.59,6.438,6.438,0,0,0,1.576-2.081l.481-1.659a4.886,4.886,0,0,1,.588-1.657M36.438,49.305l.16.767A2.02,2.02,0,0,1,35.209,52.1h-.587a2.012,2.012,0,0,1-2.084-1.6L32.43,49.8a2.108,2.108,0,0,1,.961-1.654,3.556,3.556,0,0,1,1.017-.27,2.127,2.127,0,0,1,2.03,1.426" transform="translate(-3.786 -41.573)" fill="#e85589"/>
      <path id="Path_598" data-name="Path 598" d="M64.174,67.437l.052.587a3.867,3.867,0,0,1-1.069,2.564,8.722,8.722,0,0,1-2.244,1.819,2.263,2.263,0,0,1-1.389.477,2.5,2.5,0,0,1-1.015-.184,3.32,3.32,0,0,1-.961-.723,6.834,6.834,0,0,1-1.764-2.831A11.254,11.254,0,0,1,55.3,65.78l.214-2.458V59.578a4.542,4.542,0,0,0-.376-1.551,2.763,2.763,0,0,0-.919-1.548,1.821,1.821,0,0,0-1.4-.588q-3.4.481-6.151,4.493-2.322,3.47-2.322,5.714v4.574c0,.28.32.561.963.841q.908.316.747,1.054H39.164L39,72.3c.035-.147.437-.33,1.2-.563s1.148-.6,1.148-1.1V57.289q0-.483-1.443-.83t-1.549-.673a1.62,1.62,0,0,1,.187-.268c.089-.108.189-.212.293-.319a6.514,6.514,0,0,1,2.726-.324,10.647,10.647,0,0,1,2.885.324v3.205l-.106,2.03v1.12l.106,1.232,3.2-5.131q2.342-2.994,5.218-2.994a6.239,6.239,0,0,1,2.237.266,2.764,2.764,0,0,1,1.276.8,6.89,6.89,0,0,1,1.651,2.514,8.685,8.685,0,0,1,.479,2.942l-.16,2.3-.373,4.274.052,1.015a2.3,2.3,0,0,0,1.818,2.4l.641.108a3.3,3.3,0,0,0,2.3-1.443Z" transform="translate(1.345 -36.92)" fill="#e85589"/>
      <path id="Path_599" data-name="Path 599" d="M74.495,74.44l.052.963a3.934,3.934,0,0,1-.266,1.6,3.653,3.653,0,0,1-.857,1.362,5.045,5.045,0,0,1-1.416,1.15,3.6,3.6,0,0,1-1.683.374,3.429,3.429,0,0,1-1.175-.212q-1.872-.642-3.714-4.488t-4.251-3.849l-.747.051c-.713,0-1.069.373-1.069,1.123V78.18c0,.324.356.553,1.069.695l1.123.162a.816.816,0,0,1-.18.538,1.651,1.651,0,0,1-.942.319H54.561c0-.427.292-.661.873-.7.55,0,.9-.125,1.042-.373l.327-.644V61.509q0-2.58-.079-7.769t-.079-7.773c0-.251-.287-.447-.855-.592q-2.033-.321-2.246-.8a3.251,3.251,0,0,1,1.283-.432h3.848a1.177,1.177,0,0,1,.16.4,3.644,3.644,0,0,1,.054.725V46.4l.16,12.205.16,11.3a5.578,5.578,0,0,0,3.205-2.295l1.764-2.236q.7-.761,1.364-1.445a7.458,7.458,0,0,1,.988-.9,4.429,4.429,0,0,1,2.726-1.039,4.291,4.291,0,0,1,1.551.266A1.794,1.794,0,0,1,71.93,63a2.47,2.47,0,0,1,.319,1.285,2.53,2.53,0,0,1-.319,1.067l-.374.7a1.03,1.03,0,0,1-.749.266c-.214-.074-.428-.464-.642-1.177s-.518-1.121-.909-1.227q-1.763-.324-3.954,1.821l-3.421,3.647-.32.486a1.751,1.751,0,0,0,.695.322,11.8,11.8,0,0,1,2.192.428,6.21,6.21,0,0,1,2.886,2.573q2.936,4.562,3.9,5.2a.872.872,0,0,0,.482.108,1.023,1.023,0,0,0,.533-.162,4.348,4.348,0,0,0,1.229-1.548l.268-1.285c.106-.674.356-1.032.749-1.069" transform="translate(11.761 -44.139)" fill="#e85589"/>
    </g>
    <g id="Group_99" data-name="Group 99" transform="translate(76.12)">
      <path id="Path_600" data-name="Path 600" d="M82.1,77.483l1.018,3.851.074,2.269s.944,10.413,3.058,20.9c.656,3.252.486,6.78.511,10.126.015,2.666.342,5.218-.076,7.432a8.464,8.464,0,0,0-.067,2.618c.288,2.116-1.243,8.088-1.46,10.489-.116,1.28.152-2.425.071-1.893a10.766,10.766,0,0,0-.46,3.416c.224,3.391.688,5.8,1.846,7.437a15.661,15.661,0,0,0,2.768,2.772,10.73,10.73,0,0,0,3.5,1.819,33.312,33.312,0,0,0,6.992,1.528s4.778.067,5.974.511a2.675,2.675,0,0,0,1.236.29c1.022.032,2.153.125,2.632.174a48.21,48.21,0,0,0,8.44-.246,19.818,19.818,0,0,0,2.986-.583,13.68,13.68,0,0,0,3.864-1.236c2.863-1.61,4.615-2.536,4.615-2.536a6.839,6.839,0,0,0,2.227-2.269,12.79,12.79,0,0,0,1.312-1.821c1.453-3.719,1.511-5.336.583-8.233a29.662,29.662,0,0,1-1.091-4.866c-.244-1.592.288-3.544.508-5.257a56.547,56.547,0,0,0,0-10.565,21.853,21.853,0,0,1,.076-3.348c.093-1.224.322-2.913.435-3.935.2-1.786.843-3.74,1.02-5.608a24.794,24.794,0,0,1,.654-4.224c.583-2.477.582-5,1.02-7.8a127.893,127.893,0,0,1,2.767-13.47c1.022-3.5,1.383-14.788,1.312-17.992l-.29-4.154a71.788,71.788,0,0,0-.658-10.268c.155.988,5.129-5.136,5.389-5.534,2.725-4.082,2.229-3.064,5.9-9.034,1.748-2.841,4.082-11.436,4.082-11.436l.288-4.588-.509-3.644c-1.067-2.524-1.823-3.608-1.823-2.767,0,.223.123,3.15-.157,3.445-3.264,3.4-8.38,4.854-11.485,6.6-.954.534-9.835,5.434-10.715,6.125-4.53,3.531-10.04,7-14.245,11.239-2.07,2.086-3.107,2.3-3.529,3.06-.905,1.634,1.229-5.458,2.038-6.992-.953,1.8,1.168-2.237,2.038-3.207,1.961-2.173,3.5-3.4,7.967-6.7.823-.607,6.216-3.836,6.99-4.176.322-.142-.774-.486-2.135,0-.4.142-2.205,1.41-2.62,1.652a54.928,54.928,0,0,0-7.479,5.05c-3.969,3.364-3.957,3.9-6.8,8.351-.55.863-2.428,5.537-2.038,7.574.1.553-.583-3.4-.777-2.913a70.226,70.226,0,0,1,.973-8.349,23.329,23.329,0,0,1,6.6-11.656c.759-.777,4.723-2.087,3.5-2.524-.563-.2-.737.148-1.362.389-1.265.486-1.04.674-1.265.776-1.812.838-2.563,1.807-4.854,4.37-2.428,2.721-2.475,5.974-3.686,8.449a18.185,18.185,0,0,0,.288-3.3,20.724,20.724,0,0,1,.969-4.856,19.647,19.647,0,0,1,3.595-5.827c.941-.9,2.372-2.306,3.3-3.3.651-.7,3.7-3.509,1.845-3.3-.873.1-.582.1-1.357.971-.179.2-.413.472-.973,1.069-.885.948-2.065,1.866-3.107,2.814-2.774,2.526-5.925,8.742-6.314,12.822-.32,3.342-.445,8.528-.873,9.322-.776,1.438-1.457-4.857-.386-1.846-.885-2.49-4.3-17.853-3.595-13.886.573,3.232.894,5.2,1.064,6.495.465,3.537-.2,2.109.035,7.827-.121-2.932-5.913-16.749-8.061-19.032-.325-.347-.816-1.457-1.361-1.457-.728,0-.735-.344-.973.172-.029.059-.059.132-.094.216-.223.545,1.627,1.89,2.042,2.332a27.842,27.842,0,0,1,7.542,19.568C99.681,29.256,86,19.628,84.336,18.7c-5.051-2.816-10.1-5.05-18.066-8.739l-5.746-3.7c-.971,4.079.309,12.532-.567,4.864L61.61,18.9c.506,1.126.728,2.32,1.261,3.4a29.508,29.508,0,0,0,2.622,4.367,71.7,71.7,0,0,0,16.9,15.421L82.246,43.4A44.617,44.617,0,0,0,81.5,49l-.292,1.249.088,2.372c-.086.693-.356.857-.356.857s-.239,1.576-.315,2.467c-.145,1.045-.356,3.1-.494,3.745L79.624,63.5l-.292,4.3" transform="translate(-59.958 -5.53)" fill="#fff"/>
      <path id="Path_601" data-name="Path 601" d="M74.839,26.843s-.728,4.507-.882,6.139l-.29,1.318-.143,1.755s-.116,1.484-.147,2.49c-.03.924-.217.863-.3,1.757-.135,1.007-.585,2.851-.727,3.517l-.147,1.757-.433,4.539-.147,1.905V52.9a8.282,8.282,0,0,0,.534,3.171c.04.691.217.548.243,1.222.179.588,1.48,4.788,1.668,5.633.27,1.217.813,3.805,1.049,4.325l.388,3.124.342,2.733,1.062,8.848c.45,3.52,1.517,7.208,1.728,10.9.128,2.207.2,4.291.368,7.031a55.146,55.146,0,0,1,0,5.931c-.066,1.207-.17,2.731-.219,4.025-.032.835.2,1.293.12,2.224-.059.711-1.49,4.842-1.458,6.051a20.278,20.278,0,0,0-.484,2.733c.042.706-.034.42-.2,1.467a10.19,10.19,0,0,0,.487,4,11.22,11.22,0,0,0,3.091,5.222c1.261,1.489,6.093,3.4,7.031,3.561,2.758.464,12.6,1.588,14.06,1.588.693,0,3.23.126,3.984.2a33.969,33.969,0,0,0,11.369-2.109,31.734,31.734,0,0,0,5.635-3.259,17.616,17.616,0,0,0,3.008-4.36,15.579,15.579,0,0,0,.961-4.625c.185-2.006-1.877-4.772-1.743-7.446.008-.174-.1-1.27-.1-1.27.1-2.082.688-2.763.776-5.149.035-.956-.032-.958,0-1.954.042-1.116-.037-6.119-.194-7.027a20.172,20.172,0,0,1,.051-2.809,34.656,34.656,0,0,1,.583-6.336c.811-4.7,2.18-9.513,2.382-13.664.408-8.263,3.139-15.41,3.79-18.843.695-3.644.389-9.175.389-13.667l-.246-6.982a37.854,37.854,0,0,0-.921-10.787" transform="translate(-51.961 8.924)" fill="#fff" stroke="#e85589" stroke-width="0.75"/>
      <path id="Path_602" data-name="Path 602" d="M131.852,5.658l.389-.113c2.6,2.763,2.256,8.582,1.546,12.3-1.676,8.912-8.064,18.1-13.861,24.061-.632.654-3.249,2.706-3.856,2.328-.2-.12-.31-.916.29-1.494.671-.642,1.836-1.7,2.6-2.531,7.953-8.606,13.643-16.537,13.5-28.953-7.427,4.557-15.741,8.145-22.832,12.971-5.247,3.564-10.327,7.231-14.8,10.976-1.173.976-2.591,3.618-4.557,2.352,3.183-3.03,6.736-6.146,10.575-9.159a115.682,115.682,0,0,1,19.534-12.553c4.03-2.008,8.617-3.291,11.485-6.6.177-1.421-1.074-2.612-.017-3.586" transform="translate(-39.16 -5.52)" fill="#e85589" fill-rule="evenodd"/>
      <path id="Path_603" data-name="Path 603" d="M124.564,28.325a16.687,16.687,0,0,1,.317,9.143,10.465,10.465,0,0,0-6.336-1.834c-6.08,0-13.229,3.35-19.165,2.833C94.006,38,88.152,34.1,84.709,31.643c-1.177-.838-2.738-1.673-2.986-2.893,5.594,1.512,14.2,3.138,21.676,1.062a23.037,23.037,0,0,0,2.339-.84,17.553,17.553,0,0,1,2.451-.814c5.287-1.232,17.368-.695,16.375-.342" transform="translate(-45.026 9.467)" fill="#e85589" fill-rule="evenodd"/>
      <path id="Path_604" data-name="Path 604" d="M60.381,6.14l.066-.174c1.838.143,2.3,1.511,3.537,2.325C67.55,10.638,72,12.228,76.175,14.258c10.31,5,18.988,10.652,25.439,17.137.506.5,4.19,3.3,2.462,4.124-.782.373-1.18-.747-1.846-1.49C92.911,23.626,76.1,15.875,61.588,8.8,61.33,21.506,69.925,31.3,80.625,38.761c.647.454,3.1,1.175,1.976,2.745-2.392-.563-4.271-2.4-6.151-3.907C66.292,29.476,58.389,19.5,60.381,6.14" transform="translate(-59.88 -5.231)" fill="#e85589" fill-rule="evenodd"/>
      <path id="Path_605" data-name="Path 605" d="M117.828,36.5a34.384,34.384,0,0,1-6.754,2.226C104.257,40.681,94,43,84.444,42.922a57.383,57.383,0,0,1-5.844-.346,33.289,33.289,0,0,1-6.4-1.307c-.158-.052-.189-.711-.143-1.163.113-1.131.983-5.392.983-5.392s.1-.845.184-1.748c8.936-1.108,15.166,2,22.278,3.241,6.031,1.049,16.092,1.688,22.321.3" transform="translate(-51.668 13.13)" fill="#e85589" fill-rule="evenodd"/>
      <path id="Path_606" data-name="Path 606" d="M99.875,80.7c-.1,2.742-.728,6.737-4.031,8.983-2.146-2.694.9-7.24,4.031-8.983" transform="translate(-35.833 46.037)" fill="#1a1818" fill-rule="evenodd"/>
      <path id="Path_607" data-name="Path 607" d="M84.689,89.68c-3.48-1.8-3.551-6.147-4.171-8.852,3.173,1.16,6.225,6.37,4.171,8.852" transform="translate(-45.853 46.127)" fill="#1a1818" fill-rule="evenodd"/>
      <path id="Path_608" data-name="Path 608" d="M122.944,57.936c-4.615,1.765-10.415,4.336-16.456,4.6a16.982,16.982,0,0,1-2.63-.069c-9.8-1.194-14.48-8.177-23.756-9.59,6.955-3.623,18.992,2.438,26.776,2.232a14.074,14.074,0,0,0,2.978-.411c.609-.142,1.207-.324,1.8-.524a42.428,42.428,0,0,0,5.068-2.214,54.873,54.873,0,0,0,5.109-3.008c1.344-.87,2.6-1.721,3.552-2.344A1.942,1.942,0,0,1,124.8,48.5c.683-.1.025.836,0,1.069-.28,2.964-1.389,5.977-1.858,8.366" transform="translate(-46.138 22.651)" fill="#e85589" fill-rule="evenodd"/>
      <path id="Path_609" data-name="Path 609" d="M106.848,66.327a19.3,19.3,0,0,1-11.295-.209c-5.331-1.558-8.481-5.657-13.271-6.57-2.549-.484-7.385-.941-7.6.717a8.252,8.252,0,0,0-.293-2.767c-.327-2.276-.428-4.834-.428-4.834a53.343,53.343,0,0,1,6.977-.674c3.493-.1,7.526.185,10.17,1.635,4.6,2.522,5.431,9.7,11.307,11.585,1.637.528,3.1.177,4.434,1.118" transform="translate(-50.352 26.33)" fill="#e85589" fill-rule="evenodd"/>
      <path id="Path_610" data-name="Path 610" d="M113.593,69.847a36.929,36.929,0,0,1-7.923,1.16,47.742,47.742,0,0,1-20.62-3.883c1.162-.309,2.435.052,3.568,0a49.23,49.23,0,0,0,5.628-.936c1.983-.339,4.2-.255,5.813-.754,2.65-.818,5.149-2.634,7.7-3.75.293-.128.61-.268.949-.415a48.914,48.914,0,0,1,9.5-3.077c1.216-.2.032,1.366-.143,2.62-.309,2.092-1.216,5.488-1.313,6.9-.192.629-.191.823-.872,1.163a9.862,9.862,0,0,0-1.651.826" transform="translate(-42.744 30.587)" fill="#e85589" fill-rule="evenodd"/>
      <path id="Path_611" data-name="Path 611" d="M101.523,70.859C89.834,70.721,77.1,70.746,76,78.633a25.823,25.823,0,0,0,0-4.466c-.046-1.091-.074-2.355-.074-2.355a9.305,9.305,0,0,1-.118-2.013c.583-4.08,11.878-2.478,17.575-1.381,3.2.615,6.517,1.015,8.139,2.441" transform="translate(-49.101 36.754)" fill="#e85589" fill-rule="evenodd"/>
      <path id="Path_612" data-name="Path 612" d="M116.049,70.085c-.836.084-1.679.158-2.522.241-5.768.555-11.588,1.187-15.709,3.524-.3.17-.593.347-.88.541-3.047,2.013-5.365,4.938-9.083,5.291a8.36,8.36,0,0,1-1.047.037c-2.5-.059-5-1.082-7.6-1.541.13,7.631,8.111,8.037,14.245,6.52.8-.2,1.576-.433,2.295-.686,2.411-.85,4.276-2.718,6.2-3.387a10.828,10.828,0,0,1,2.526-.519,27.051,27.051,0,0,1,7.533.59,43.6,43.6,0,0,1,5.916,1.622c.857.31,1.568-.145,1.393.718a21.875,21.875,0,0,0,.706-3.731c-.013-2.057.022-3.19.022-3.19s.366-4.6-.169-6.014" transform="translate(-46.751 38.757)" fill="#e85589" fill-rule="evenodd"/>
      <path id="Path_613" data-name="Path 613" d="M91.563,34.407a37.888,37.888,0,0,0-.143-4.987,26.932,26.932,0,0,0-1.588-7.99A32.168,32.168,0,0,0,82.064,8.778a.773.773,0,0,0-.558-.184c-.69,0-1.6.514-1.182.954C87.039,16.7,89.91,24.89,89.671,34.61c-.02.863,1.877.5,1.892-.2" transform="translate(-46.058 -3.429)" fill="#e85589"/>
      <path id="Path_614" data-name="Path 614" d="M91.76,33.549a20.51,20.51,0,0,1,2.824-8.69c3.551-5.915,9.846-9.7,16.279-13.332,1.091-.617-.637-.555-1.1-.293-9.491,5.35-18.723,10.951-19.892,22.819-.029.293,1.824.088,1.885-.5" transform="translate(-39.434 -1.746)" fill="#1a1818"/>
      <path id="Path_615" data-name="Path 615" d="M89.651,34.747c1.018-4.986.9-10.115,1.92-15.1,1.239-6.112,5.948-8.944,9.921-13.19.782-.835-1.054-.916-1.536-.4-3.458,3.7-7.737,6.366-9.58,11.285C88.287,22.9,88.934,29.187,87.757,34.95c-.165.8,1.747.509,1.893-.2" transform="translate(-40.894 -5.392)" fill="#e85589"/>
      <path id="Path_616" data-name="Path 616" d="M89.95,31.881c-.218-8.292,3.215-18.246,11.1-21.8.592-.266.062-.717-.408-.514C92.186,13.232,88.775,23.347,89,31.966c.013.472.961.309.951-.084" transform="translate(-40.042 -2.793)" fill="#1a1818"/>
      <path id="Path_617" data-name="Path 617" d="M90.018,31.106c.231-2.664-.776-4.949-1.182-7.414-.266-1.62-.551-3.236-.878-4.844A67.959,67.959,0,0,0,85.7,10.224c-.179-.516-.357-1.028-.553-1.538-.165-.432-1.1-.167-.941.251q.685,1.823,1.231,3.674a90.42,90.42,0,0,1,2.382,10.875c.44,2.617.83,5.247,1.258,7.872.071.442,1.018.2.944-.253" transform="translate(-43.338 -3.516)" fill="#1a1818"/>
      <path id="Path_618" data-name="Path 618" d="M113.276,40.66l-.04-.044c-2.683,2.519-5.451,3.369-8.3,2.517,2.219-.155,4.026-1.529,5.373-4.148a7.016,7.016,0,0,1-7.253,2.681c-4.659-1.514-8.29.4-10.836,5.733a3.011,3.011,0,0,1,.275-.277,2.071,2.071,0,0,0-.268.336c-.1.212-.185.4-.285.615l-.035.012c-.211.647.094,1.1.934,1.4a7.6,7.6,0,0,0,1.1.792q-2.185-1.522-.391-4.392A15.265,15.265,0,0,1,96.178,43.8a6.872,6.872,0,0,1,7.319-.214,3.526,3.526,0,0,1,.475.277,1.543,1.543,0,0,1,.415.278c1.445,1.035,1.423,2.517-.051,4.417a9.93,9.93,0,0,1-4.19,2.743c2.713-.472,4.52-1.533,5.454-3.193.056-.061.187-.226.415-.469a1.459,1.459,0,0,1,.728-.523.941.941,0,0,1,.617-.091c.164.02.374.059.619.084a7.017,7.017,0,0,0,2.866-.256c.1-.013.211-.019.309-.034.285-.125.558-.226.838-.33a13.93,13.93,0,0,0,1.828-1.049c-.008-.034-.008-.034-.037-.046a6.8,6.8,0,0,1-1.5.283c-.337.044-.7.079-1.044.093a9.374,9.374,0,0,1-4.419-1.118c2.64.184,4.775-1.157,6.459-3.994" transform="translate(-38.082 17.422)" fill="#1a1818"/>
      <path id="Path_619" data-name="Path 619" d="M103.608,41.992a3.528,3.528,0,0,0-.475-.277,4.11,4.11,0,0,1,.683,1.575,4.416,4.416,0,0,1-.639,3.318,4.466,4.466,0,0,1-6.043,1.231,4.36,4.36,0,0,1-1.861-2.806,4.124,4.124,0,0,1,.541-3.1,15.413,15.413,0,0,0-2.627,2.087q-1.8,2.873.391,4.392a8.518,8.518,0,0,0,3.628,1.33,6.72,6.72,0,0,0,2.576-.309,9.93,9.93,0,0,0,4.19-2.743c1.474-1.9,1.5-3.382.051-4.416a1.564,1.564,0,0,0-.415-.28" transform="translate(-37.717 19.294)" fill="#a2ccee"/>
      <path id="Path_620" data-name="Path 620" d="M99.278,48.818A4.18,4.18,0,0,0,102.038,47a4.42,4.42,0,0,0,.639-3.318,4.11,4.11,0,0,0-.683-1.575,6.872,6.872,0,0,0-7.319.214,4.124,4.124,0,0,0-.541,3.1A4.36,4.36,0,0,0,96,48.226a4.141,4.141,0,0,0,3.283.592" transform="translate(-36.579 18.906)" fill="#1a1818"/>
      <path id="Path_621" data-name="Path 621" d="M112.2,45.528c-.364.049-.708.079-1.02.089a9.123,9.123,0,0,1-4.291-1.086.26.26,0,0,1-.135.491c2.713.187,4.967-1.2,6.692-4.122a.237.237,0,0,0,.039-.138.116.116,0,0,1-.029.066.261.261,0,0,1-.4-.314l-.014.025a.275.275,0,0,1,.143-.133.441.441,0,0,0-.228.2.188.188,0,0,1,.051-.078c-2.6,2.448-5.3,3.276-8.037,2.458a.26.26,0,0,1,.184.277.267.267,0,0,1-.243.233c2.33-.164,4.208-1.6,5.591-4.289a.259.259,0,0,0-.433-.28,6.739,6.739,0,0,1-7.005,2.586l.032.007c-4.8-1.558-8.548.416-11.151,5.869a.265.265,0,0,0,.126.349.258.258,0,0,0,.346-.125c2.467-5.18,6.007-7.064,10.523-5.6a.11.11,0,0,0,.035.007,7.278,7.278,0,0,0,7.5-2.777.257.257,0,0,1-.346.059.26.26,0,0,1-.089-.337c-1.288,2.511-3.03,3.859-5.163,4.006a.261.261,0,0,0-.239.231.266.266,0,0,0,.184.28c2.92.873,5.8.007,8.553-2.578a.932.932,0,0,0,.056-.081.224.224,0,0,1-.04.054s0,.005-.015.007a.238.238,0,0,0,.143-.133l.012-.022a.269.269,0,0,0-.074-.319.264.264,0,0,0-.327,0,.448.448,0,0,0-.162.352.247.247,0,0,1,.037-.138c-1.646,2.779-3.676,4.043-6.211,3.866a.261.261,0,0,0-.138.491,9.574,9.574,0,0,0,4.544,1.145c.33-.01.695-.044,1.074-.093a.264.264,0,0,0,.223-.293.258.258,0,0,0-.292-.223" transform="translate(-38.033 17.315)" fill="#1a1818"/>
      <path id="Path_622" data-name="Path 622" d="M96.919,48.611c2.77-.482,4.667-1.6,5.635-3.325a.19.19,0,0,1-.032.054c.024-.027.052-.061.094-.1.066-.081.174-.209.32-.362a1.2,1.2,0,0,1,.614-.452l.03-.015a.733.733,0,0,1,.442-.076.322.322,0,0,0,.035.007c.069.01.15.019.243.034.111.019.239.035.381.056a7.271,7.271,0,0,0,2.972-.271.135.135,0,0,1-.035.008,1.212,1.212,0,0,1,.133-.013,1.678,1.678,0,0,0,.169-.017.235.235,0,0,0,.061-.022c.283-.123.563-.223.826-.32a.26.26,0,1,0-.179-.489c-.273.1-.555.206-.856.332a.23.23,0,0,1,.069-.015c-.04,0-.088.008-.14.012s-.111.012-.165.02l-.032.005a6.694,6.694,0,0,1-2.767.25c-.128-.013-.253-.034-.362-.047-.093-.019-.179-.029-.26-.037a.264.264,0,0,1,.042.008,1.169,1.169,0,0,0-.791.1l.035-.013a1.719,1.719,0,0,0-.863.615c-.133.147-.248.278-.32.363-.035.039-.066.071-.079.089a.123.123,0,0,0-.032.049c-.905,1.6-2.632,2.6-5.274,3.069a.253.253,0,0,0-.214.3.262.262,0,0,0,.3.212" transform="translate(-34.81 20.37)" fill="#1a1818"/>
      <path id="Path_623" data-name="Path 623" d="M99.968,50.176a10.309,10.309,0,0,0,4.3-2.814l.017-.022a4.2,4.2,0,0,0,1.148-3.06,2.538,2.538,0,0,0-1.148-1.727,1.776,1.776,0,0,0-.462-.307l.034.02a4.619,4.619,0,0,0-.508-.3,7.134,7.134,0,0,0-7.565.228,15.535,15.535,0,0,0-2.671,2.126.187.187,0,0,0-.037.049c-1.28,2.043-1.125,3.638.455,4.743a.262.262,0,0,0,.363-.064.254.254,0,0,0-.066-.362c-1.327-.931-1.428-2.251-.312-4.04a.261.261,0,0,1-.04.046,15.039,15.039,0,0,1,2.581-2.05,6.637,6.637,0,0,1,7.054-.209,3.766,3.766,0,0,1,.455.258.289.289,0,0,0,.039.029,1.382,1.382,0,0,1,.359.239,2.085,2.085,0,0,1,.956,1.389,3.765,3.765,0,0,1-1.052,2.666l.02-.019a9.693,9.693,0,0,1-4.075,2.677h0A.263.263,0,0,0,99.64,50a.266.266,0,0,0,.327.175" transform="translate(-37.825 18.8)" fill="#1a1818"/>
      <path id="Path_624" data-name="Path 624" d="M91.943,43.978a.31.31,0,0,0-.005.256.261.261,0,0,0,.489-.185l0-.01a.24.24,0,0,1-.01.153l0,0a.259.259,0,1,0-.474-.211" transform="translate(-38.036 20.739)" fill="#664041"/>
      <path id="Path_625" data-name="Path 625" d="M92.25,44.713a1.477,1.477,0,0,1,.256-.44.257.257,0,0,0-.049-.364.264.264,0,0,0-.366.051,1.986,1.986,0,0,0-.339.605.267.267,0,0,0,.179.325.257.257,0,0,0,.319-.177" transform="translate(-38.153 20.763)" fill="#664041"/>
      <path id="Path_626" data-name="Path 626" d="M92.081,43.933a2.286,2.286,0,0,0-.332.669.261.261,0,0,0,.507.121,1.8,1.8,0,0,1,.253-.491.261.261,0,1,0-.428-.3" transform="translate(-38.153 20.739)" fill="#664041"/>
      <path id="Path_627" data-name="Path 627" d="M92.389,44.405l.037-.046a1.79,1.79,0,0,1,.2-.255.261.261,0,1,0-.361-.376c-.1.1-.212.2-.293.3a.259.259,0,0,0,.042.366.254.254,0,0,0,.363-.039c.057-.071.158-.16.25-.253a.261.261,0,1,0-.361-.376,2.767,2.767,0,0,0-.268.325l-.03.047a.263.263,0,0,0,.057.364.26.26,0,0,0,.362-.061" transform="translate(-38.033 20.626)" fill="#1a1818"/>
      <path id="Path_628" data-name="Path 628" d="M91.8,44.319l0,0a.39.39,0,0,0-.024.3.268.268,0,0,1,0-.17c-.182.546-.137,1.288,1.093,1.728a.239.239,0,0,1-.084-.047,8.084,8.084,0,0,0,1.131.818.262.262,0,1,0,.27-.448,7.539,7.539,0,0,1-1.059-.762.215.215,0,0,0-.086-.051c-.883-.315-.883-.72-.767-1.076a.261.261,0,0,0-.008-.172.171.171,0,0,1,.01.1l0-.01v-.005a.254.254,0,0,0-.132-.342.26.26,0,0,0-.342.13" transform="translate(-38.188 20.975)" fill="#1a1818"/>
      <path id="Path_629" data-name="Path 629" d="M92.066,44.009l-.285.612a.263.263,0,0,1,.244-.15.267.267,0,0,1,.238.17l.01.037a.427.427,0,0,0-.025-.128.262.262,0,0,0-.492.177.36.36,0,0,1-.008-.037.35.35,0,0,0,.027.133.259.259,0,0,0,.233.169.264.264,0,0,0,.248-.15l.28-.617a.258.258,0,1,0-.469-.216" transform="translate(-38.153 20.763)" fill="#1a1818"/>
      <path id="Path_630" data-name="Path 630" d="M93.056,46.012A8.7,8.7,0,0,0,96.8,47.38a6.967,6.967,0,0,0,2.683-.319.258.258,0,0,0,.165-.33.262.262,0,0,0-.325-.164,6.381,6.381,0,0,1-2.477.29,8.1,8.1,0,0,1-3.512-1.288.262.262,0,1,0-.278.443" transform="translate(-37.336 21.911)" fill="#1a1818"/>
      <path id="Path_631" data-name="Path 631" d="M95.392,43.994a.934.934,0,1,1-.457-1.238.934.934,0,0,1,.457,1.238" transform="translate(-36.873 19.947)" fill="#f8f2f0"/>
      <path id="Path_632" data-name="Path 632" d="M99.019,44.76a.684.684,0,1,1-.336-.907.685.685,0,0,1,.336.907" transform="translate(-34.058 20.717)" fill="#fff"/>
      <path id="Path_633" data-name="Path 633" d="M94.648,47.379s-7.434-7.575-18.373-4.91c0,0,8.555.841,9.818,1.543a17.779,17.779,0,0,0-12.485,3.507s11.362-3.507,21.04-.14" transform="translate(-50.594 19.421)" fill="#1a1818" fill-rule="evenodd"/>
      <path id="Path_634" data-name="Path 634" d="M127.564,10.464a2.356,2.356,0,0,1-.794.521,2.292,2.292,0,0,1-.572.408c-1.878,1.959-4.712,2.8-7.235,4.055C111.5,19.166,98.684,28.663,93.417,33.6c1.256.787,8.206-5.1,8.96-5.724,2.91-2.4,6.206-4.756,9.612-7.049,4.6-3.1,9.978-5.424,14.788-8.361.013,7.864-3.7,12.922-8.879,18.422-.506.538-1.259,1.211-1.694,1.622-.393.369-4.23,4.613-4.107,4.687.391.234,6-4.82,6.412-5.239,3.767-3.81,7.945-9.673,9.083-15.328a13.34,13.34,0,0,0-.027-6.164" transform="translate(-37.004 -2.146)" fill="#e85589" fill-rule="evenodd"/>
      <path id="Path_635" data-name="Path 635" d="M61.925,9.153l.042-.116c1.4.165,1.792,1.1,2.758,1.694,2.78,1.708,6.2,2.939,9.432,4.458,7.941,3.724,14.679,7.8,19.848,12.455.4.359,5.716,4.478,4.439,4.969-.582.223-3.347-2.647-3.88-3.173C87.148,22.1,74.16,16.273,62.933,10.986c.26,8.552,7.11,15.461,15.466,20.87.507.329,5.689,3.967,4.895,4.981C81.459,36.373,76.678,32,75.2,30.923c-7.58-5.552-14.254-13.284-13.278-21.77" transform="translate(-58.674 -3.125)" fill="#e85589" fill-rule="evenodd"/>
    </g>
    <g id="Group_102" data-name="Group 102" transform="translate(170.585 57.739)">
      <path id="Path_636" data-name="Path 636" d="M139.242,71.265l.265,1.777a6.277,6.277,0,0,1-3.357,5.6,12.02,12.02,0,0,1-2.5,1c-.422.1-.838.187-1.263.26a8.36,8.36,0,0,1-1.361.11,29.871,29.871,0,0,1-4.871-.631,30.093,30.093,0,0,0-5.078-.631,11.645,11.645,0,0,0-4.193.786c-.211.106-.5-.034-.894-.416q.316-1.578,4.822-9.848l8.12-14.874,4.3-7.7c.1-.56-.069-.855-.528-.89h-7.115a16.227,16.227,0,0,0-2.261.209,14.384,14.384,0,0,0-3.505.84,2.19,2.19,0,0,0-1.6,1.622,11.869,11.869,0,0,0-.341,3.09c0,.312-.12.474-.366.474-.211,0-.337-.145-.366-.422l-.16-6.495c0-.28.209-.42.631-.42l9.423-.155,9.538-.158c.486,0,.732.214.732.632a1.426,1.426,0,0,1-.406.949l-5.63,10.142L125.59,66.347l-5.39,9.9.944-.062h.841a35.011,35.011,0,0,1,5.852.757,34.858,34.858,0,0,0,5.81.76,4.178,4.178,0,0,0,4.6-4.138,3.429,3.429,0,0,0-.315-1.357,2.687,2.687,0,0,0-2.511-1.627l-.737.158-.627.364a.585.585,0,0,1-.577,0l-.209-.523a5.982,5.982,0,0,1,.26-.678l.526-.683a4.75,4.75,0,0,1,.681-.472,2.563,2.563,0,0,1,1.308-.369l.836.162a3.917,3.917,0,0,1,2.355,2.725" transform="translate(-115.986 -36.608)" fill="#1a1818"/>
      <path id="Path_637" data-name="Path 637" d="M145.474,71.069a12.81,12.81,0,0,1-5.817,1.624,8.255,8.255,0,0,1-6.076-2.671A8.389,8.389,0,0,1,130.961,64a10.985,10.985,0,0,1,.315-2.462,8.012,8.012,0,0,1,3.037-4.844,8.986,8.986,0,0,1,5.658-1.863,13.136,13.136,0,0,1,4.5.577A4.421,4.421,0,0,1,147.3,58.5l.261,1.469a4.535,4.535,0,0,1-1.519,3.246,6.55,6.55,0,0,1-2.3,1.469,9.5,9.5,0,0,1-1.308.312,9.93,9.93,0,0,1-1.629.106,12.512,12.512,0,0,1-2.457-.211,9.216,9.216,0,0,1-2.3-.841l-.211-.31.211-.1,2.042.368,1.995.159a8.01,8.01,0,0,0,2.116-.238,5.311,5.311,0,0,0,1.811-.969,3.832,3.832,0,0,0,1.359-2.984,5.134,5.134,0,0,0-.261-1.519,3.28,3.28,0,0,0-.836-1.388,4.535,4.535,0,0,0-1.651-.919,6.289,6.289,0,0,0-2.018-.364,6.39,6.39,0,0,0-3.981,1.581A6.62,6.62,0,0,0,134,62.836v1.32l.1.728a13.541,13.541,0,0,0,.637,2.236,8.465,8.465,0,0,0,1.054,1.87,5.535,5.535,0,0,0,3.219,2.025l1.587.16a7.812,7.812,0,0,0,4.009-1.153,14.032,14.032,0,0,0,3.22-2.775,4.841,4.841,0,0,1-.632,1.988,5.491,5.491,0,0,1-1.721,1.834" transform="translate(-105.713 -29.449)" fill="#1a1818"/>
      <path id="Path_638" data-name="Path 638" d="M158.3,65.387a10.873,10.873,0,0,1,1.1,4.709,11.327,11.327,0,0,1-1.566,5.606,7.479,7.479,0,0,1-3.07,2.986,9.662,9.662,0,0,1-4.318.892,8.272,8.272,0,0,1-4.168-1.126,4.6,4.6,0,0,1-2.376-2.706c-.143-.659-.256-1.327-.344-1.988a18.535,18.535,0,0,1-.133-2.31l-.155-5.4V62.219l.155-3.989V46.692c0-.422-.317-.631-.954-.631l-.732.049c-.622,0-.931-.3-.931-.89a9.953,9.953,0,0,1,3.824-.735l1.1.211V71.5a8.285,8.285,0,0,0,.786,3.671,4.946,4.946,0,0,0,2.568,2.414,5.761,5.761,0,0,0,2.3.472,5.027,5.027,0,0,0,3.146-1.049,7.236,7.236,0,0,0,2.146-2.092,5.366,5.366,0,0,0,.681-2.676,12.387,12.387,0,0,0-.578-4.186,6.514,6.514,0,0,0-2.453-2.932,3.582,3.582,0,0,0-1.158-.526,6.682,6.682,0,0,0-1.573-.157h-1.044a1.9,1.9,0,0,0-1.028.551,2.934,2.934,0,0,1-1.066.651.917.917,0,0,1-.632-.312,3.608,3.608,0,0,1,1.438-2.172,5.149,5.149,0,0,1,2.07-.971l1.209-.106h.415a5.677,5.677,0,0,1,5.346,3.3" transform="translate(-98.956 -36.545)" fill="#1a1818"/>
      <path id="Path_639" data-name="Path 639" d="M169.158,59.239a2.567,2.567,0,0,1-1.78,1.784l-1,.153a1.457,1.457,0,0,1-.995-.366l.735-1.381a2.778,2.778,0,0,0,.47-1.332l-.153-.688a2.985,2.985,0,0,0-.737-.946l-.681-.312h-.838a4.656,4.656,0,0,0-2.777,1.2,15.863,15.863,0,0,0-2.2,2.4,10.713,10.713,0,0,0-1.571,5.9v1.615c.11.457.194.907.26,1.359a5.321,5.321,0,0,0,.787,1.774,1.957,1.957,0,0,0,1.05.732l1.678.106a3.824,3.824,0,0,0,2.256-1.73l1.253-2.57h.472a5.645,5.645,0,0,1-.894,3.118,5.557,5.557,0,0,1-2.721,2.123,5.138,5.138,0,0,1-1.726.317,5,5,0,0,1-3.561-1.673,3.851,3.851,0,0,1-.919-1.379,13.355,13.355,0,0,1-.5-2.895V60.762l-.057-3.352q0-.579-1.3-.58c-.875,0-1.308-.243-1.308-.732l1.281-.211,2.3-.209,1.654.158a3.082,3.082,0,0,1,.26,1.463v2.78a20.134,20.134,0,0,1,3.291-3.512,7,7,0,0,1,4.222-1.829,4.218,4.218,0,0,1,3.025,1.413,3.222,3.222,0,0,1,.937,2.146Z" transform="translate(-91.007 -29.51)" fill="#1a1818"/>
      <path id="Path_640" data-name="Path 640" d="M182.843,70.6a2.94,2.94,0,0,1-1.217-.16,1.389,1.389,0,0,1-.787-.838l-.32-3.3V55.023h-.87a1.989,1.989,0,0,0-1.135.233,2.6,2.6,0,0,0-.614.813,8.785,8.785,0,0,0-1.258-.651c-.31-.126-.718-.255-1.2-.395a8.647,8.647,0,0,0-2.514-.346,9.846,9.846,0,0,0-4.347,1.094,8.782,8.782,0,0,0-3.458,2.843,9.861,9.861,0,0,0-1.568,4.207l-.16,1.932a9.361,9.361,0,0,0,.681,3.448,6.635,6.635,0,0,0,2.2,2.608,8.442,8.442,0,0,0,4.977,1.622,11.486,11.486,0,0,0,4.239-.978,6.717,6.717,0,0,0,1.784-1.135l.89-1.028.563,1.147.513.577a3.708,3.708,0,0,0,2.666,1.153l1.389-.206m-5.706-12.151v8.324A9.273,9.273,0,0,1,175,70.227a5.81,5.81,0,0,1-2.79.786A5.9,5.9,0,0,1,170.2,70.6a5.094,5.094,0,0,1-2.87-2.564,10.048,10.048,0,0,1-.794-4.193,9.752,9.752,0,0,1,.991-4.5,6.8,6.8,0,0,1,3.04-2.988,5.919,5.919,0,0,1,2.937-.733,4.911,4.911,0,0,1,4.289,2.1Z" transform="translate(-83.464 -29.553)" fill="#1a1818"/>
      <g id="Group_100" data-name="Group 100" transform="translate(112.452 36.845)">
        <path id="Path_641" data-name="Path 641" d="M185.483,61.629a2.845,2.845,0,0,1,1.374.362,2.555,2.555,0,0,1,1.047,1.034,2.813,2.813,0,0,1,.005,2.8,2.571,2.571,0,0,1-1.035,1.035,2.8,2.8,0,0,1-2.784,0,2.6,2.6,0,0,1-1.039-1.035,2.813,2.813,0,0,1,.005-2.8,2.589,2.589,0,0,1,1.049-1.034A2.853,2.853,0,0,1,185.483,61.629Zm0,.464a2.4,2.4,0,0,0-1.15.3,2.163,2.163,0,0,0-.872.865,2.321,2.321,0,0,0-.007,2.33,2.217,2.217,0,0,0,.865.863,2.33,2.33,0,0,0,2.323,0,2.2,2.2,0,0,0,.865-.863,2.332,2.332,0,0,0-.007-2.33,2.167,2.167,0,0,0-.873-.865A2.392,2.392,0,0,0,185.483,62.093Zm-1.229,3.883V62.964h1.035a2.531,2.531,0,0,1,.769.084.753.753,0,0,1,.378.292.765.765,0,0,1,.14.44.812.812,0,0,1-.234.575.934.934,0,0,1-.627.275.824.824,0,0,1,.258.16,3.421,3.421,0,0,1,.443.6l.368.59h-.592l-.268-.474a2.421,2.421,0,0,0-.508-.7.629.629,0,0,0-.391-.1h-.285v1.28Zm.486-1.694h.59a.959.959,0,0,0,.578-.126.433.433,0,0,0,.079-.573.458.458,0,0,0-.206-.157,1.509,1.509,0,0,0-.489-.052h-.553Z" transform="translate(-182.682 -61.629)" fill="#1a1818"/>
      </g>
      <g id="Group_101" data-name="Group 101" transform="translate(83.428)">
        <path id="Path_642" data-name="Path 642" d="M166.38,47.875c-.555,2.076-.061,4.055,2.45,5.69,2.49,1.62,5.225,1.514,8.351,1.185.015-.005,1.548-.152,2.291-.236a11.476,11.476,0,0,1,3.637.789c1.5.553,1.929,1.391,3.293,2.425.126.113,1.03,1.615,1.054,1.634,0,0,.7,2.453.975,3.239a23.36,23.36,0,0,1-.975,6.508,14,14,0,0,1-2.871,3.794c-2.608,2.081,2.128.73,2.9.342,4.893-2.475,3.365-2.5,4.374-3.873.309-.432.347-3.038.369-4.347a11.9,11.9,0,0,0-2.081-6.56l-.369-.553a20.4,20.4,0,0,0-1.415-1.607c-.17-.128-3.325-2.688-5.066-2.951a20.53,20.53,0,0,0-3.662-.1c-.784.089-2.335.086-2.976.236.013-.007-4.478.231-6.877-1.265-2.028-1.265-2.295-1.861-1.686-4.084" transform="translate(-164.982 -34.219)" fill="#fff"/>
        <path id="Path_643" data-name="Path 643" d="M178.584,61.905c2.976-.757,3.34-1.929,1.123-3.49a13.593,13.593,0,0,1-1.123,3.49" transform="translate(-156.47 -26.988)" fill="#e85589"/>
        <path id="Path_644" data-name="Path 644" d="M181.346,59.169a21.435,21.435,0,0,1-.659,2.3,1.786,1.786,0,0,0,.659-2.3" transform="translate(-155.027 -26.471)" fill="#e85589"/>
        <path id="Path_645" data-name="Path 645" d="M175.953,51.344a13.394,13.394,0,0,1,2.118.551c-.383-.732-1.072-.924-2.118-.551" transform="translate(-158.274 -31.966)" fill="#e85589"/>
        <path id="Path_646" data-name="Path 646" d="M178.114,53.747c.214.263.421.561.629.851,3.208.1,3.568.922,1.071,2.4.1.455.211.941.278,1.447a11.117,11.117,0,0,0,2.711-2.136,11.9,11.9,0,0,0-1.216-2.185,17.967,17.967,0,0,0-3.547-.457c.02.035.051.042.074.078" transform="translate(-156.843 -30.244)" fill="#e85589"/>
        <path id="Path_647" data-name="Path 647" d="M180.144,53.94a11.949,11.949,0,0,1,1.216,2.185c.752-.991.369-1.723-1.216-2.185" transform="translate(-155.399 -30.058)" fill="#e85589"/>
        <path id="Path_648" data-name="Path 648" d="M185.61,61.669l-2.365.922-1.369.506c-.01.005-1.531.6-1.531.6L177.207,64.9l-1.045.4c-.415.206-.808.427-1.2.639a.3.3,0,0,0,.3.526c.379-.211.772-.433,1.145-.615-.029.008,1.018-.395,1.018-.395l3.136-1.2c.012,0,1.529-.6,1.529-.6l1.376-.5,2.371-.931a.3.3,0,0,0,.167-.386.294.294,0,0,0-.388-.165" transform="translate(-159.06 -24.772)" fill="#1a1818"/>
        <path id="Path_649" data-name="Path 649" d="M177.18,64.309s-1.187.728-1.012,1.374c.292,1.135,7.818-2.268,8.459-4.052Z" transform="translate(-158.139 -24.781)" fill="#f8f2f0"/>
        <path id="Path_650" data-name="Path 650" d="M181.125,61.36a18.337,18.337,0,0,1-1.681,3.182s2.517-1.061,3.114-2.765-.867-.563-.867-.563Z" transform="translate(-155.88 -25.324)" fill="#ebdbd3"/>
        <path id="Path_651" data-name="Path 651" d="M178.117,64.13a10.32,10.32,0,0,0,4.333-1.325,21.791,21.791,0,0,0,.659-2.307,9.4,9.4,0,0,0-2.957-3.268c.007.368.013.74.013,1.14-.02.084-.034.145-.049.2-.02.211-.071.443-.089.654,2.217,1.561,1.853,2.735-1.123,3.49-.234.467-.5.958-.787,1.413" transform="translate(-156.79 -27.801)" fill="#e85589"/>
        <path id="Path_652" data-name="Path 652" d="M178.786,51.82a13.535,13.535,0,0,0-2.118-.551,8.185,8.185,0,0,0-1.757.973,8.639,8.639,0,0,1,4.148,1.979,5.2,5.2,0,0,0-.273-2.4" transform="translate(-158.989 -31.891)" fill="#e85589"/>
        <path id="Path_653" data-name="Path 653" d="M178.611,54.132a16.934,16.934,0,0,1,1.307,3.4s1.905-2.563,1.463-2.93a9.046,9.046,0,0,0-2.77-.469" transform="translate(-156.451 -29.927)" fill="#e85589"/>
        <path id="Path_654" data-name="Path 654" d="M166.865,52.964a4.118,4.118,0,0,0-.148.519l.932.062c1.425-2.8,3.92-4.158,7.488-4.031l-1.794-1.007a15.612,15.612,0,0,1,9.614-2.738c-3.288-1.47-7.078-1.678-11.4-.656l3.015-2.4c-.786.093-1.622.239-2.435.42.813-.18,1.649-.327,2.435-.42a10.606,10.606,0,0,1,6.935-1.548,21.147,21.147,0,0,0-11.052-.823,2.65,2.65,0,0,1-.455.108c-4.433,2.011-5.491,6.161-3.131,12.517" transform="translate(-165.349 -39.655)" fill="#e85589"/>
        <path id="Path_655" data-name="Path 655" d="M167.227,52.535l1.332.093a5.179,5.179,0,0,1,.381-1.259q6.935,1.333,9.766-2.709l-2.194.167a15.263,15.263,0,0,1,12.849-1.986c-4.052-4.262-9.238-5.994-15.609-5.171l-3.015,2.4c4.325-1.022,8.115-.813,11.4.658a15.579,15.579,0,0,0-9.614,2.738l1.794,1c-3.568-.123-6.063,1.232-7.488,4.033Z" transform="translate(-164.532 -38.613)" fill="#1a1818"/>
        <path id="Path_656" data-name="Path 656" d="M168.416,48.126l-1.332-.094c-.332,3.273,1.246,4.962,4.743,5.1l.032.008c.373.088.732.169,1.111.224a12.384,12.384,0,0,0,5.131.029c.309-.017.631-.069.939-.086a15.709,15.709,0,0,1,3.028.182c1.045-.373,1.735-.18,2.118.551a11.355,11.355,0,0,1,2.883,1.748c.229.207.477.452.706.658a18.252,18.252,0,0,1,1.359,1.546c1.585.462,1.968,1.2,1.216,2.185a11.229,11.229,0,0,1,.359,6.631,1.79,1.79,0,0,1-.659,2.307c-.384.983-.843,2.017-1.364,3.092l2.362-.924c.236-.47.462-.91.666-1.383a12.307,12.307,0,0,0,.513-1.418A12.59,12.59,0,0,0,190.5,57.3a12.209,12.209,0,0,0-4.728-3.987,13.757,13.757,0,0,0-7.073-1.157c-.6.046-1.227.116-1.861.211a16.827,16.827,0,0,1-6.737-.767,3.063,3.063,0,0,1-1.681-3.468" transform="translate(-164.389 -34.112)" fill="#e85589"/>
        <path id="Path_657" data-name="Path 657" d="M173.239,42.087c6.216-.806,11.381.909,15.35,5.078a.3.3,0,0,1,.3-.494A15.606,15.606,0,0,0,175.8,48.695a.29.29,0,0,0-.13.344.3.3,0,0,0,.3.207l2.2-.17a.3.3,0,0,1-.287-.147.3.3,0,0,1,.019-.322c-1.806,2.58-4.989,3.448-9.46,2.588a.293.293,0,0,0-.327.17,5.5,5.5,0,0,0-.41,1.337,3.366,3.366,0,0,0,1.829,3.772.281.281,0,0,0,.051.025,17.3,17.3,0,0,0,6.861.782c.62-.089,1.241-.167,1.856-.211a13.516,13.516,0,0,1,6.926,1.13,11.9,11.9,0,0,1,4.616,3.9,12.349,12.349,0,0,1,1.683,10.922,11.89,11.89,0,0,1-.508,1.386c-.169.4-.354.779-.556,1.177l-.1.191a.3.3,0,0,0,.538.268l.094-.192c.2-.406.4-.792.573-1.207a13.819,13.819,0,0,0,.526-1.452,12.923,12.923,0,0,0-1.767-11.438,12.487,12.487,0,0,0-4.847-4.094,14.112,14.112,0,0,0-7.225-1.184c-.632.049-1.27.12-1.89.212a16.512,16.512,0,0,1-6.589-.757.33.33,0,0,1,.049.024A2.781,2.781,0,0,1,168.3,52.8a5.093,5.093,0,0,1,.366-1.2.3.3,0,0,1-.327.174c4.723.912,8.106-.04,10.061-2.827a.315.315,0,0,0,.014-.322.305.305,0,0,0-.287-.148l-2.188.165a.3.3,0,0,1,.185.555,15,15,0,0,1,12.6-1.952.3.3,0,0,0,.307-.5c-4.1-4.323-9.445-6.087-15.862-5.262a.3.3,0,0,0,.078.6" transform="translate(-163.977 -38.733)" fill="#1a1818"/>
        <path id="Path_658" data-name="Path 658" d="M172.014,41.412c-.776.093-1.63.236-2.462.422a.3.3,0,1,0,.13.587c.813-.18,1.649-.324,2.4-.413a.3.3,0,1,0-.069-.6" transform="translate(-162.828 -38.655)" fill="#1a1818"/>
        <path id="Path_659" data-name="Path 659" d="M174.105,50.823c-.575-.317-1.116-.142-1.649.556a6.564,6.564,0,0,0-.744,1.411,5.97,5.97,0,0,1,1.524-.231,7.707,7.707,0,0,1,2.089-.261,4.175,4.175,0,0,0-1.221-1.475" transform="translate(-161.183 -32.301)" fill="#e85589"/>
        <path id="Path_660" data-name="Path 660" d="M171.008,51.034c-.354-.551-.922-.647-1.708-.275a6.348,6.348,0,0,0-1.322.907,6.985,6.985,0,0,1,1.642.528,6.585,6.585,0,0,1,1.792.712,4.167,4.167,0,0,0-.4-1.872" transform="translate(-163.746 -32.394)" fill="#e85589"/>
        <path id="Path_661" data-name="Path 661" d="M168.761,50.275c.084-.652-.288-1.089-1.131-1.317a6.214,6.214,0,0,0-1.388.025c.416.4.106.823.393,1.608.246.676,1.037.712,1.226,1.372a4.157,4.157,0,0,0,.9-1.689" transform="translate(-164.937 -33.504)" fill="#e85589"/>
        <path id="Path_662" data-name="Path 662" d="M174.834,43.089a10.25,10.25,0,0,1,6.747-1.512.3.3,0,0,0,.138-.58,21.577,21.577,0,0,0-11.209-.831l-.032.008a2.71,2.71,0,0,1-.408.1.222.222,0,0,0-.081.022c-4.586,2.079-5.69,6.417-3.284,12.895a.291.291,0,0,1,0-.223,3.323,3.323,0,0,0-.163.567c-.607,2.46.3,4.406,2.679,5.775a13.271,13.271,0,0,0,7.8,1.383.22.22,0,0,1,.037-.007,13.23,13.23,0,0,1,1.8-.336,10.333,10.333,0,0,1,2.48.071,8.357,8.357,0,0,1,4,1.917c.113.113.28.246.435.379a6.191,6.191,0,0,1,.646.673.067.067,0,0,0-.014-.034.5.5,0,0,0,.1.111l-.03-.03a.223.223,0,0,1,.025.03c.2.241.393.516.577.781l.042.056a11.179,11.179,0,0,1,1.032,2.313c.118.528.2.976.266,1.4.056.41.086.816.11,1.207.008.346.012.72.012,1.118a.253.253,0,0,1,.007-.069l-.049.2c0,.017-.007.03-.007.042-.007.093-.024.192-.042.3s-.037.241-.051.359a13.019,13.019,0,0,1-1.089,3.382,13.836,13.836,0,0,1-.774,1.384,16.184,16.184,0,0,1-3.21,3.563,22.369,22.369,0,0,1-1.974,1.45.306.306,0,0,0-.091.415.3.3,0,0,0,.415.086,21.23,21.23,0,0,0,2.032-1.489,16.865,16.865,0,0,0,3.337-3.7,15.087,15.087,0,0,0,.8-1.442A13.908,13.908,0,0,0,189,71.258c.012-.125.029-.229.049-.342s.037-.226.049-.339c0,.013-.005.025-.005.037l.042-.2a.159.159,0,0,0,.008-.064c0-.4,0-.781-.008-1.15-.035-.415-.056-.83-.12-1.258a14.016,14.016,0,0,0-.282-1.475,11.645,11.645,0,0,0-1.1-2.482.621.621,0,0,0-.057-.079c-.189-.273-.391-.558-.6-.811.007.01.007.02.02.032a.389.389,0,0,0-.1-.113l.024.029a.213.213,0,0,1-.022-.029,6.262,6.262,0,0,0-.732-.75c-.152-.126-.3-.255-.428-.371a8.855,8.855,0,0,0-4.3-2.054,10.779,10.779,0,0,0-2.64-.083,15.085,15.085,0,0,0-1.885.351.089.089,0,0,1,.042-.007,12.722,12.722,0,0,1-7.447-1.308c-2.141-1.236-2.929-2.91-2.387-5.115a3.471,3.471,0,0,1,.14-.472.3.3,0,0,0,.007-.219c-2.312-6.213-1.342-10.187,2.971-12.139a.248.248,0,0,1-.081.02,2.756,2.756,0,0,0,.5-.12.237.237,0,0,1-.037.008,21.071,21.071,0,0,1,10.9.813.286.286,0,0,1-.189-.354.293.293,0,0,1,.335-.224,10.954,10.954,0,0,0-7.134,1.583.3.3,0,0,0-.115.408.3.3,0,0,0,.406.113" transform="translate(-165.468 -39.776)" fill="#1a1818"/>
        <path id="Path_663" data-name="Path 663" d="M172.152,65.346s1.125,4.02,5.781,2.613,9.4-4.143,9.88-5.045-.163-.309-.163-.309l-7.727,2.531s-2.33,1.5-3.5,1.5-1.956-.58-1.956-4.136-1.534-1.47-1.534-1.47Z" transform="translate(-160.882 -25.609)" fill="#1a1818"/>
      </g>
    </g>
  </g>
  <g id="Group_104" data-name="Group 104" transform="translate(172.185 111.725)">
    <path id="Path_664" data-name="Path 664" d="M122.838,79.626a5.022,5.022,0,0,1-2.057.369,3.638,3.638,0,0,1-3.846-3.939A3.874,3.874,0,0,1,121,71.966a4.179,4.179,0,0,1,1.848.347l-.243.819a3.676,3.676,0,0,0-1.571-.324A2.9,2.9,0,0,0,118,76.021a2.831,2.831,0,0,0,2.993,3.131,4.039,4.039,0,0,0,1.641-.324Z" transform="translate(-116.935 -71.678)" fill="#e85589"/>
    <path id="Path_665" data-name="Path 665" d="M121.158,71.795h1.018v3.488h.022a1.873,1.873,0,0,1,.728-.717,2.084,2.084,0,0,1,1.039-.288c.752,0,1.952.462,1.952,2.391V80H124.9v-3.21c0-.9-.334-1.664-1.295-1.664a1.459,1.459,0,0,0-1.361,1.017,1.233,1.233,0,0,0-.069.484V80h-1.018Z" transform="translate(-114.038 -71.795)" fill="#e85589"/>
    <path id="Path_666" data-name="Path 666" d="M128.232,78.985l-.081-.7h-.034a2.079,2.079,0,0,1-1.71.831,1.592,1.592,0,0,1-1.71-1.605c0-1.352,1.2-2.091,3.36-2.079v-.116a1.152,1.152,0,0,0-1.27-1.293,2.793,2.793,0,0,0-1.457.416l-.229-.669a3.469,3.469,0,0,1,1.836-.5c1.71,0,2.124,1.167,2.124,2.286v2.091a7.708,7.708,0,0,0,.094,1.34Zm-.15-2.853c-1.108-.024-2.367.172-2.367,1.259a.9.9,0,0,0,.958.97,1.389,1.389,0,0,0,1.352-.936,1.082,1.082,0,0,0,.057-.324Z" transform="translate(-111.609 -70.784)" fill="#e85589"/>
    <path id="Path_667" data-name="Path 667" d="M128.277,74.907c0-.577-.012-1.05-.047-1.512h.9l.057.926h.024a2.055,2.055,0,0,1,1.848-1.052c.774,0,1.976.462,1.976,2.379v3.338H132.02V75.763c0-.9-.336-1.652-1.295-1.652a1.444,1.444,0,0,0-1.362,1.04,1.473,1.473,0,0,0-.069.472v3.362h-1.017Z" transform="translate(-109.186 -70.784)" fill="#e85589"/>
    <path id="Path_668" data-name="Path 668" d="M137.04,73.394c-.024.4-.046.856-.046,1.538v3.246a3.216,3.216,0,0,1-.8,2.551,2.961,2.961,0,0,1-2.033.671,3.622,3.622,0,0,1-1.861-.462l.256-.774a3.146,3.146,0,0,0,1.639.438c1.04,0,1.8-.543,1.8-1.951v-.624h-.024a2,2,0,0,1-1.779.936,2.5,2.5,0,0,1-2.379-2.728,2.683,2.683,0,0,1,2.519-2.967,1.857,1.857,0,0,1,1.743.971h.022l.047-.845ZM135.988,75.6a1.487,1.487,0,0,0-1.479-1.536c-.969,0-1.662.821-1.662,2.114,0,1.1.555,2.011,1.651,2.011a1.488,1.488,0,0,0,1.41-1.04,1.782,1.782,0,0,0,.081-.543Z" transform="translate(-106.725 -70.784)" fill="#e85589"/>
    <path id="Path_669" data-name="Path 669" d="M136.615,76.374a1.79,1.79,0,0,0,1.915,1.942,3.68,3.68,0,0,0,1.549-.288l.174.727a4.527,4.527,0,0,1-1.861.347,2.6,2.6,0,0,1-2.747-2.819c0-1.686.991-3.015,2.62-3.015a2.368,2.368,0,0,1,2.31,2.634,3.786,3.786,0,0,1-.034.472Zm2.979-.727a1.448,1.448,0,0,0-1.41-1.652,1.684,1.684,0,0,0-1.558,1.652Z" transform="translate(-104.099 -70.784)" fill="#e85589"/>
    <path id="Path_670" data-name="Path 670" d="M142.5,79.827v-3.3l-2.462-4.483h1.145l1.1,2.148c.3.59.533,1.064.774,1.608h.024c.221-.509.486-1.018.786-1.608l1.121-2.148h1.141l-2.608,4.471v3.315Z" transform="translate(-101.084 -71.626)" fill="#e85589"/>
    <path id="Path_671" data-name="Path 671" d="M148.859,76.144a2.732,2.732,0,0,1-2.785,2.967,2.656,2.656,0,0,1-2.677-2.876,2.728,2.728,0,0,1,2.77-2.967A2.648,2.648,0,0,1,148.859,76.144Zm-4.436.057c0,1.224.7,2.148,1.7,2.148.971,0,1.7-.912,1.7-2.172,0-.946-.475-2.148-1.678-2.148S144.423,75.14,144.423,76.2Z" transform="translate(-98.782 -70.784)" fill="#e85589"/>
    <path id="Path_672" data-name="Path 672" d="M152.085,77.41c0,.578.012,1.084.047,1.524h-.9l-.057-.912h-.024A2.1,2.1,0,0,1,149.3,79.06c-.878,0-1.931-.484-1.931-2.448V73.343h1.017v3.1c0,1.062.324,1.777,1.248,1.777a1.473,1.473,0,0,0,1.34-.922,1.507,1.507,0,0,0,.091-.521V73.343h1.017Z" transform="translate(-96.053 -70.733)" fill="#e85589"/>
    <path id="Path_673" data-name="Path 673" d="M151.185,75.14c0-.659-.012-1.226-.046-1.745h.889l.035,1.1h.046a1.68,1.68,0,0,1,1.548-1.224,1.087,1.087,0,0,1,.29.034v.959a1.605,1.605,0,0,0-.347-.034,1.423,1.423,0,0,0-1.362,1.3,2.835,2.835,0,0,0-.047.475v2.979h-1Z" transform="translate(-93.47 -70.784)" fill="#e85589"/>
    <path id="Path_674" data-name="Path 674" d="M154.877,72.041h4.193v.845h-3.187v2.586h2.945V76.3h-2.945v3.524h-1.007Z" transform="translate(-90.905 -71.626)" fill="#e85589"/>
    <path id="Path_675" data-name="Path 675" d="M158.032,75.14c0-.659-.012-1.226-.047-1.745h.89l.034,1.1h.047a1.678,1.678,0,0,1,1.548-1.224,1.066,1.066,0,0,1,.288.034v.959a1.594,1.594,0,0,0-.347-.034,1.423,1.423,0,0,0-1.361,1.3,2.837,2.837,0,0,0-.047.475v2.979h-1Z" transform="translate(-88.773 -70.784)" fill="#e85589"/>
    <path id="Path_676" data-name="Path 676" d="M163.492,78.985l-.081-.7h-.035a2.075,2.075,0,0,1-1.708.831,1.592,1.592,0,0,1-1.71-1.605c0-1.352,1.2-2.091,3.36-2.079v-.116a1.152,1.152,0,0,0-1.271-1.293,2.787,2.787,0,0,0-1.455.416l-.231-.669a3.48,3.48,0,0,1,1.838-.5c1.71,0,2.124,1.167,2.124,2.286v2.091a7.708,7.708,0,0,0,.094,1.34Zm-.15-2.853c-1.108-.024-2.367.172-2.367,1.259a.9.9,0,0,0,.958.97,1.389,1.389,0,0,0,1.352-.936,1.082,1.082,0,0,0,.057-.324Z" transform="translate(-87.42 -70.784)" fill="#e85589"/>
    <path id="Path_677" data-name="Path 677" d="M168.5,73.394c-.024.4-.046.856-.046,1.538v3.246a3.216,3.216,0,0,1-.8,2.551,2.961,2.961,0,0,1-2.033.671,3.618,3.618,0,0,1-1.861-.462l.256-.774a3.147,3.147,0,0,0,1.639.438c1.04,0,1.8-.543,1.8-1.951v-.624h-.024a2,2,0,0,1-1.779.936,2.5,2.5,0,0,1-2.379-2.728,2.683,2.683,0,0,1,2.517-2.967,1.858,1.858,0,0,1,1.745.971h.022l.047-.845ZM167.448,75.6a1.488,1.488,0,0,0-1.479-1.536c-.969,0-1.662.821-1.662,2.114,0,1.1.555,2.011,1.651,2.011a1.488,1.488,0,0,0,1.41-1.04,1.783,1.783,0,0,0,.081-.543Z" transform="translate(-85.142 -70.784)" fill="#e85589"/>
    <path id="Path_678" data-name="Path 678" d="M167.323,75.14c0-.659-.012-1.226-.047-1.745h.89l.034,1.1h.047a1.678,1.678,0,0,1,1.548-1.224,1.066,1.066,0,0,1,.288.034v.959a1.594,1.594,0,0,0-.347-.034,1.423,1.423,0,0,0-1.361,1.3,2.835,2.835,0,0,0-.047.475v2.979h-1Z" transform="translate(-82.399 -70.784)" fill="#e85589"/>
    <path id="Path_679" data-name="Path 679" d="M172.783,78.985l-.081-.7h-.035a2.075,2.075,0,0,1-1.708.831,1.592,1.592,0,0,1-1.71-1.605c0-1.352,1.2-2.091,3.36-2.079v-.116a1.152,1.152,0,0,0-1.271-1.293,2.787,2.787,0,0,0-1.455.416l-.231-.669a3.48,3.48,0,0,1,1.838-.5c1.71,0,2.124,1.167,2.124,2.286v2.091a7.71,7.71,0,0,0,.094,1.34Zm-.15-2.853c-1.108-.024-2.367.172-2.367,1.259a.9.9,0,0,0,.958.97,1.389,1.389,0,0,0,1.352-.936,1.082,1.082,0,0,0,.057-.324Z" transform="translate(-81.046 -70.784)" fill="#e85589"/>
    <path id="Path_680" data-name="Path 680" d="M172.828,74.907c0-.577-.012-1.05-.047-1.512h.9l.059.926h.022a2.058,2.058,0,0,1,1.85-1.052c.774,0,1.976.462,1.976,2.379v3.338H176.57V75.763c0-.9-.334-1.652-1.293-1.652a1.444,1.444,0,0,0-1.362,1.04,1.472,1.472,0,0,0-.069.472v3.362h-1.017Z" transform="translate(-78.623 -70.784)" fill="#e85589"/>
    <path id="Path_681" data-name="Path 681" d="M180.759,78.774a3.767,3.767,0,0,1-1.607.324,2.656,2.656,0,0,1-2.784-2.854,2.841,2.841,0,0,1,3-2.969,3.381,3.381,0,0,1,1.41.29l-.231.786a2.361,2.361,0,0,0-1.179-.266,2.108,2.108,0,0,0-.034,4.2,2.892,2.892,0,0,0,1.246-.277Z" transform="translate(-76.161 -70.78)" fill="#e85589"/>
    <path id="Path_682" data-name="Path 682" d="M180.365,76.374a1.79,1.79,0,0,0,1.915,1.942,3.68,3.68,0,0,0,1.549-.288l.174.727a4.527,4.527,0,0,1-1.861.347,2.6,2.6,0,0,1-2.747-2.819c0-1.686.991-3.015,2.62-3.015a2.368,2.368,0,0,1,2.31,2.634,3.775,3.775,0,0,1-.034.472Zm2.979-.727a1.448,1.448,0,0,0-1.41-1.652,1.685,1.685,0,0,0-1.558,1.652Z" transform="translate(-74.084 -70.784)" fill="#e85589"/>
    <path id="Path_683" data-name="Path 683" d="M150.936,87.842a5.02,5.02,0,0,1-2.057.368,3.638,3.638,0,0,1-3.846-3.939,3.875,3.875,0,0,1,4.065-4.089,4.183,4.183,0,0,1,1.85.347l-.244.819a3.661,3.661,0,0,0-1.57-.324,2.9,2.9,0,0,0-3.038,3.212,2.829,2.829,0,0,0,2.993,3.129,4.026,4.026,0,0,0,1.639-.322Z" transform="translate(-97.659 -66.041)" fill="#e85589"/>
    <path id="Path_684" data-name="Path 684" d="M149.257,80.011h1.017V83.5h.024a1.872,1.872,0,0,1,.728-.717,2.075,2.075,0,0,1,1.039-.29c.75,0,1.952.464,1.952,2.392v3.327H153V85c0-.9-.336-1.666-1.295-1.666a1.462,1.462,0,0,0-1.362,1.018,1.234,1.234,0,0,0-.069.484v3.374h-1.017Z" transform="translate(-94.761 -66.159)" fill="#e85589"/>
    <path id="Path_685" data-name="Path 685" d="M156.331,87.2l-.081-.7h-.035a2.075,2.075,0,0,1-1.708.831,1.592,1.592,0,0,1-1.71-1.605c0-1.352,1.2-2.091,3.36-2.079v-.116a1.152,1.152,0,0,0-1.271-1.293,2.786,2.786,0,0,0-1.455.416l-.231-.671a3.5,3.5,0,0,1,1.838-.5c1.71,0,2.124,1.168,2.124,2.288v2.091a7.735,7.735,0,0,0,.093,1.34Zm-.15-2.853c-1.109-.024-2.369.172-2.369,1.259a.9.9,0,0,0,.959.969,1.393,1.393,0,0,0,1.352-.936,1.082,1.082,0,0,0,.057-.324Z" transform="translate(-92.332 -65.149)" fill="#e85589"/>
    <path id="Path_686" data-name="Path 686" d="M156.374,83.124c0-.577-.01-1.05-.046-1.512h.9l.057.924h.024a2.061,2.061,0,0,1,1.85-1.052c.774,0,1.976.464,1.976,2.381V87.2h-1.018V83.98c0-.9-.334-1.654-1.293-1.654a1.446,1.446,0,0,0-1.362,1.042,1.466,1.466,0,0,0-.069.472V87.2h-1.018Z" transform="translate(-89.909 -65.149)" fill="#e85589"/>
    <path id="Path_687" data-name="Path 687" d="M165.139,81.611c-.024.4-.047.855-.047,1.538v3.246a3.216,3.216,0,0,1-.8,2.551,2.964,2.964,0,0,1-2.033.671,3.617,3.617,0,0,1-1.861-.462l.255-.774a3.154,3.154,0,0,0,1.641.438c1.039,0,1.8-.543,1.8-1.951v-.624h-.022a2,2,0,0,1-1.779.934,2.5,2.5,0,0,1-2.379-2.726,2.683,2.683,0,0,1,2.517-2.969,1.856,1.856,0,0,1,1.743.973h.024l.046-.845Zm-1.052,2.205a1.412,1.412,0,0,0-.059-.46,1.463,1.463,0,0,0-1.42-1.076c-.969,0-1.664.819-1.664,2.114,0,1.1.555,2.01,1.652,2.01a1.486,1.486,0,0,0,1.41-1.039,1.789,1.789,0,0,0,.081-.543Z" transform="translate(-87.448 -65.149)" fill="#e85589"/>
    <path id="Path_688" data-name="Path 688" d="M164.714,84.59a1.793,1.793,0,0,0,1.919,1.942,3.71,3.71,0,0,0,1.548-.288l.174.727a4.539,4.539,0,0,1-1.861.346,2.6,2.6,0,0,1-2.748-2.819c0-1.686.993-3.015,2.622-3.015a2.369,2.369,0,0,1,2.31,2.635,3.706,3.706,0,0,1-.035.472Zm2.981-.727a1.447,1.447,0,0,0-1.409-1.652,1.687,1.687,0,0,0-1.56,1.652Z" transform="translate(-84.822 -65.149)" fill="#e85589"/>
    <path id="Path_689" data-name="Path 689" d="M168.885,80.257h1V87.2h3.327v.843h-4.331Z" transform="translate(-81.295 -65.99)" fill="#e85589"/>
    <path id="Path_690" data-name="Path 690" d="M173.28,80.886a.63.63,0,0,1-1.259,0,.619.619,0,0,1,.634-.636A.605.605,0,0,1,173.28,80.886Zm-1.133,7.162V82.457h1.017v5.591Z" transform="translate(-79.144 -65.995)" fill="#e85589"/>
    <path id="Path_691" data-name="Path 691" d="M174.373,81.559l1.1,3.143a14.828,14.828,0,0,1,.452,1.431h.034c.126-.462.288-.924.472-1.431l1.088-3.143h1.062l-2.2,5.591h-.969l-2.126-5.591Z" transform="translate(-78.276 -65.097)" fill="#e85589"/>
    <path id="Path_692" data-name="Path 692" d="M177.652,84.59a1.791,1.791,0,0,0,1.917,1.942,3.7,3.7,0,0,0,1.548-.288l.174.727a4.529,4.529,0,0,1-1.86.346,2.6,2.6,0,0,1-2.748-2.819c0-1.686.991-3.015,2.62-3.015a2.369,2.369,0,0,1,2.31,2.635,3.789,3.789,0,0,1-.034.472Zm2.979-.727a1.448,1.448,0,0,0-1.41-1.652,1.686,1.686,0,0,0-1.558,1.652Z" transform="translate(-75.946 -65.149)" fill="#e85589"/>
    <path id="Path_693" data-name="Path 693" d="M180.374,86.163a2.663,2.663,0,0,0,1.339.4c.74,0,1.086-.369,1.086-.831,0-.486-.288-.75-1.039-1.027-1.007-.359-1.479-.914-1.479-1.585a1.724,1.724,0,0,1,1.927-1.641,2.787,2.787,0,0,1,1.376.347l-.255.74a2.172,2.172,0,0,0-1.143-.324c-.6,0-.936.347-.936.762,0,.462.335.669,1.064.948.969.369,1.467.855,1.467,1.686,0,.981-.762,1.674-2.091,1.674a3.21,3.21,0,0,1-1.571-.379Z" transform="translate(-73.588 -65.149)" fill="#e85589"/>
  </g>
</svg>
