<svg id="Menu" xmlns="http://www.w3.org/2000/svg" width="23.02" height="17.278" viewBox="0 0 23.02 17.278">
  <g id="Group_1861" data-name="Group 1861" transform="translate(0 0)">
    <path id="Path_2312" data-name="Path 2312" d="M-464,171.942c.022-.053.047-.106.066-.161a1.436,1.436,0,0,1,1.37-1.007c.457-.005.914,0,1.371,0h18.677a1.438,1.438,0,0,1,1.505,1.149,1.436,1.436,0,0,1-1.325,1.726c-.1.005-.195,0-.292,0-6.518,0-13.036-.008-19.553.01A1.638,1.638,0,0,1-464,172.482Z" transform="translate(464 -170.771)" fill="#ff1378"/>
    <path id="Path_2313" data-name="Path 2313" d="M-464,291.7c.028-.067.058-.134.082-.2a1.425,1.425,0,0,1,1.331-.965c.494-.007.989,0,1.483,0h18.587a1.438,1.438,0,0,1,1.505,1.149,1.437,1.437,0,0,1-1.325,1.726c-.1.005-.195,0-.292,0-6.518,0-13.035-.008-19.553.01A1.638,1.638,0,0,1-464,292.242Z" transform="translate(464 -283.337)" fill="#ff1378"/>
    <path id="Path_2314" data-name="Path 2314" d="M-464,411.468c.028-.067.058-.134.082-.2a1.425,1.425,0,0,1,1.331-.965c.494-.007.989,0,1.483,0h18.587a1.438,1.438,0,0,1,1.505,1.149,1.436,1.436,0,0,1-1.325,1.726c-.1.005-.195,0-.292,0-6.518,0-13.035-.008-19.553.01A1.638,1.638,0,0,1-464,412.008Z" transform="translate(464 -395.909)" fill="#ff1378"/>
  </g>
</svg>
