<svg xmlns="http://www.w3.org/2000/svg" width="22.251" height="27.171" viewBox="0 0 22.251 27.171">
  <path id="PZ_Phone" d="M27.9,22.591a1.97,1.97,0,0,1,1.958.128c1.092.647,4.786,3.525,3.867,5.13s-3.578,3.169-7.878,1.272-6.569-5.13-8.308-7.389S11.9,13.483,14.658,7.527c0,0,1.386-2.372,2.939-2.528,0,0,.742-.167,1.725,1.033s2.558,3.961,2.189,5.136c0,0-.814,1.056-1.231,1.744s-1.628,1.569-1,3.561,3.458,7.008,6.375,6.989A4.345,4.345,0,0,0,27.9,22.591Z" transform="translate(-12.624 -3.978)" fill="none" stroke="#ff1378" stroke-width="2" fill-rule="evenodd"/>
</svg>
