<svg xmlns="http://www.w3.org/2000/svg" width="24.458" height="24.458" viewBox="0 0 24.458 24.458">
  <path id="PZ_Pinterest" d="M5,17.229a12.236,12.236,0,0,0,7.878,11.433,12.085,12.085,0,0,1,.024-3.633c.22-.951,1.427-6.052,1.427-6.052a4.417,4.417,0,0,1-.361-1.807c0-1.693.981-2.957,2.2-2.957a1.529,1.529,0,0,1,1.541,1.715A24.669,24.669,0,0,1,16.7,19.982a1.769,1.769,0,0,0,1.8,2.2c2.163,0,3.826-2.283,3.826-5.576a4.805,4.805,0,0,0-5.087-4.951,5.269,5.269,0,0,0-5.495,5.283,4.731,4.731,0,0,0,.9,2.777.37.37,0,0,1,.084.351c-.092.386-.3,1.212-.34,1.381-.054.223-.177.269-.408.163-1.522-.707-2.47-2.93-2.47-4.715,0-3.84,2.788-7.367,8.044-7.367,4.223,0,7.506,3.008,7.506,7.03,0,4.2-2.644,7.574-6.318,7.574a3.257,3.257,0,0,1-2.791-1.4s-.611,2.326-.758,2.894a13.9,13.9,0,0,1-1.579,3.3,12.372,12.372,0,0,0,3.606.535A12.229,12.229,0,1,0,5,17.229" transform="translate(-5 -5)" fill="#ff1378" fill-rule="evenodd"/>
</svg>
