<svg xmlns="http://www.w3.org/2000/svg" width="20.522" height="23.62" viewBox="0 0 20.522 23.62">
  <g id="PZ_TikTok" transform="translate(-8.751 -5.6)">
    <path id="Path_2907" data-name="Path 2907" d="M19.528,5.618C20.82,5.6,22.1,5.613,23.381,5.6A6.13,6.13,0,0,0,25.1,9.705a6.945,6.945,0,0,0,4.171,1.761V15.43a10.411,10.411,0,0,1-4.134-.955,12.121,12.121,0,0,1-1.6-.913c-.005,2.874.013,5.748-.018,8.614a7.489,7.489,0,0,1-1.333,3.879,7.319,7.319,0,0,1-5.819,3.155A7.186,7.186,0,0,1,12.36,28.2a7.42,7.42,0,0,1-3.585-5.622c-.024-.493-.031-.982-.013-1.462a7.424,7.424,0,0,1,8.6-6.58c.018,1.457-.037,2.916-.037,4.373a3.388,3.388,0,0,0-4.315,2.087,4.009,4.009,0,0,0-.134,1.583,3.362,3.362,0,0,0,6.173,1.247,2.391,2.391,0,0,0,.407-1.047c.1-1.761.06-3.515.068-5.273,0-3.974-.018-7.927.008-11.885Z" transform="translate(0 0)" fill="#ff1378"/>
  </g>
</svg>
