<svg xmlns="http://www.w3.org/2000/svg" width="26.921" height="21.874" viewBox="0 0 26.921 21.874">
  <path id="Logo_1_" d="M29.163,18.879c.015.236.015.476.015.715A15.608,15.608,0,0,1,13.464,35.308v0A15.666,15.666,0,0,1,5,32.825a12.093,12.093,0,0,0,1.316.081,11.073,11.073,0,0,0,6.858-2.369A5.529,5.529,0,0,1,8.015,26.7a5.535,5.535,0,0,0,2.494-.1,5.524,5.524,0,0,1-4.432-5.413v-.069a5.5,5.5,0,0,0,2.506.691,5.533,5.533,0,0,1-1.711-7.375A15.672,15.672,0,0,0,18.255,20.21a5.528,5.528,0,0,1,9.412-5.037,11.115,11.115,0,0,0,3.508-1.34,5.524,5.524,0,0,1-2.429,3.054,10.947,10.947,0,0,0,3.173-.87A11.254,11.254,0,0,1,29.163,18.879Z" transform="translate(-5 -13.434)" fill="#ff1378"/>
</svg>
