<svg id="PZ_YouTube" xmlns="http://www.w3.org/2000/svg" width="29.869" height="20.911" viewBox="0 0 29.869 20.911">
  <path id="Path_2905" data-name="Path 2905" d="M35.117,24.256a3.741,3.741,0,0,0-2.64-2.64C30.145,20.99,20.8,20.99,20.8,20.99s-9.341,0-11.672.623a3.741,3.741,0,0,0-2.64,2.64,38.972,38.972,0,0,0-.623,7.192,38.992,38.992,0,0,0,.623,7.192,3.741,3.741,0,0,0,2.64,2.64C11.464,41.9,20.8,41.9,20.8,41.9s9.341,0,11.672-.623a3.741,3.741,0,0,0,2.64-2.64,38.972,38.972,0,0,0,.623-7.192A38.972,38.972,0,0,0,35.117,24.256Z" transform="translate(-5.87 -20.99)" fill="#ff1378"/>
  <path id="Path_2906" data-name="Path 2906" d="M41.17,47.6l7.763-4.481L41.17,38.64Z" transform="translate(-29.224 -32.667)" fill="#fff"/>
</svg>
